<?xml version="1.0" encoding="utf-8"?>
<!-- Generator: Adobe Illustrator 24.1.2, SVG Export Plug-In . SVG Version: 6.00 Build 0)  -->
<svg version="1.1" id="Layer_1" xmlns="http://www.w3.org/2000/svg" xmlns:xlink="http://www.w3.org/1999/xlink" x="0px" y="0px"
	 width="485.9px" height="542.2px" viewBox="0 0 485.9 542.2" style="enable-background:new 0 0 485.9 542.2;" xml:space="preserve"
	>
<style type="text/css">
	.st0{fill:#F1F2F7;}
	.st1{fill:#FFFFFF;}
	.st2{fill:#004996;}
	.st3{fill:#E20A16;}
</style>
<path class="st0" d="M485.9-1.3v513.5c0,16.6-13.4,30-30,30H30c-16.6,0-30-13.4-30-30V-0.1"/>
<rect x="22.9" y="95.9" class="st1" width="440.3" height="326.7"/>
<g>
	<path class="st2" d="M88.4,305.3c-2.9-0.7-5.5-1.2-8-1.7c-2.5-0.4-4.8-0.4-7.1,0c-1.8,0.3-3.1,0.9-4,1.7c-0.9,0.8-1.2,1.7-1.1,2.5
		c0.2,0.9,0.6,1.6,1.3,2c0.7,0.4,1.6,0.7,2.6,0.8c1.2,0.1,2.3,0.2,3.2,0.4c0.9,0.1,1.9,0.3,3.2,0.4c12.1,1.4,19.1,6.9,20.8,16.5
		c0.6,3.1,0.5,6.1-0.1,8.9c-0.7,2.9-1.9,5.4-3.6,7.8c-1.7,2.3-3.9,4.3-6.6,5.9c-2.7,1.6-5.7,2.8-9.1,3.4c-2.5,0.5-4.9,0.7-7,0.8
		c-2.2,0.1-4.3,0-6.2-0.1c-2-0.2-3.8-0.4-5.6-0.8c-1.8-0.3-3.5-0.7-5.1-1l1.3-19.6c3.3,1.2,6.4,2.1,9.3,2.6c2.9,0.6,5.9,0.6,8.9,0
		c1-0.2,2-0.7,2.8-1.5c0.8-0.8,1.1-1.7,0.9-2.8c-0.1-0.7-0.5-1.3-1.2-1.8c-0.7-0.5-1.4-0.8-2.1-1c-4.1-0.5-7.8-1.1-11-1.6
		c-3.2-0.6-6.1-1.5-8.5-2.7c-2.4-1.2-4.4-2.8-5.9-4.9c-1.5-2-2.6-4.8-3.2-8.3c-0.5-2.6-0.4-5.2,0.2-7.7c0.6-2.5,1.7-4.8,3.2-6.8
		c1.5-2.1,3.6-3.8,6.1-5.3c2.5-1.5,5.4-2.6,8.7-3.2c1.3-0.2,2.4-0.3,3.3-0.3c0.9,0,2,0.1,3.4,0.1l0.2-2.9l17.6-0.4L88.4,305.3z"/>
	<path class="st2" d="M133,343l-19.1,3.6l-8.4-45.1l-5,0.9l1.4-20.2l19.1-3.6L133,343z"/>
	<path class="st2" d="M209.7,328.7l-19.1,3.6l-6.9-37.2l-9.1,18.3l-14.9-13.8l6.9,37.2l-19.1,3.6l-8.4-45.1l-4.8,0.9l1.2-20.2
		l20.1-3.7l13.6,12.1l8.7-16.3l19.8-3.7L209.7,328.7z"/>
	<path class="st2" d="M280.2,282.3c0.9,4.9,0.8,9.5-0.2,13.9c-1,4.4-2.8,8.3-5.3,11.8c-2.5,3.5-5.5,6.4-9.2,8.7
		c-3.6,2.3-7.6,3.9-11.8,4.7c-4.6,0.9-9.1,0.8-13.5-0.1c-4.4-0.9-8.3-2.6-11.9-5c-3.5-2.4-6.6-5.5-9.1-9.2s-4.2-7.9-5.1-12.6
		c-0.6-3-0.7-5.6-0.6-7.8c0.2-2.2,0.7-4.8,1.6-7.7c3.9-13.4,12.6-21.4,26.3-24c4.5-0.8,8.9-0.7,13.2,0.4c4.3,1.1,8.1,2.9,11.6,5.4
		c3.5,2.5,6.5,5.6,8.9,9.3C277.8,273.9,279.4,277.9,280.2,282.3z M260.5,285.9c-0.3-1.7-0.9-3.4-1.9-4.9c-0.9-1.6-2.1-2.9-3.4-4
		c-1.3-1.1-2.9-1.9-4.6-2.4c-1.7-0.5-3.6-0.5-5.6-0.2c-2.2,0.4-4.1,1.2-5.6,2.3c-1.6,1.1-2.8,2.5-3.7,4c-0.9,1.5-1.5,3.2-1.8,4.9
		c-0.3,1.8-0.3,3.5,0,5.1c0.4,1.9,1,3.7,2,5.3c1,1.6,2.1,2.9,3.6,3.9c1.4,1,3,1.7,4.8,2.1c1.8,0.4,3.7,0.4,5.7,0
		c1.4-0.3,2.4-0.7,3.3-1.2c0.8-0.6,1.8-1.3,2.8-2.2c2-1.8,3.3-3.8,4.1-5.8C260.9,290.9,261,288.6,260.5,285.9z"/>
	<path class="st2" d="M352.1,302.1l-16.8,3.1l-24.8-27.9l5.9,31.5l-18.7,3.5l-8.4-45.1l-5,0.9l1.4-20.2l20.1-3.7l20,22.9l-4.8-25.8
		l19.1-3.6L352.1,302.1z"/>
	<path class="st2" d="M386,295.8l-19.1,3.6l-8.4-45.1l-5,0.9l1.4-20.2l19.1-3.6L386,295.8z"/>
	<path class="st2" d="M428.3,241.9c-2.9-0.7-5.5-1.2-8-1.7c-2.5-0.4-4.8-0.4-7.1,0c-1.8,0.3-3.1,0.9-4,1.7c-0.9,0.8-1.2,1.7-1.1,2.5
		c0.2,0.9,0.6,1.6,1.3,2c0.7,0.4,1.6,0.7,2.6,0.8c1.2,0.1,2.3,0.2,3.2,0.4c0.9,0.1,1.9,0.3,3.2,0.4c12.1,1.4,19.1,6.9,20.8,16.5
		c0.6,3.1,0.5,6.1-0.1,8.9c-0.7,2.9-1.9,5.4-3.6,7.8c-1.7,2.3-3.9,4.3-6.6,5.9c-2.7,1.6-5.7,2.8-9.1,3.4c-2.5,0.5-4.9,0.7-7,0.8
		c-2.2,0.1-4.3,0-6.2-0.1c-2-0.2-3.8-0.4-5.6-0.8c-1.8-0.3-3.5-0.7-5.1-1l1.3-19.6c3.3,1.2,6.4,2.1,9.3,2.6c2.9,0.6,5.9,0.6,8.9,0
		c1-0.2,2-0.7,2.8-1.5c0.8-0.8,1.1-1.7,0.9-2.8c-0.1-0.7-0.5-1.3-1.2-1.8c-0.7-0.5-1.4-0.8-2.1-1c-4.1-0.5-7.8-1.1-11-1.6
		c-3.2-0.6-6.1-1.5-8.5-2.7c-2.4-1.2-4.4-2.8-5.9-4.9c-1.5-2-2.6-4.8-3.2-8.3c-0.5-2.6-0.4-5.2,0.2-7.7c0.6-2.5,1.7-4.8,3.2-6.8
		c1.5-2.1,3.6-3.8,6.1-5.3s5.4-2.6,8.7-3.2c1.3-0.2,2.4-0.3,3.3-0.3c0.9,0,2,0.1,3.4,0.1l0.2-2.9l17.6-0.4L428.3,241.9z"/>
</g>
<path class="st2" d="M22.9,407.7c0,0,24.7-23.3,49.2-27.1c28-1,39.1,11.9,59.2,11.1c35.4-1.8,50.1-33.7,78.5-33.7
	c37.7,0,37.2,13.5,60.8,13.8c39.1-0.9,51.1-37,92.8-37.9c28.6,0,31.6,10,60.4,10c26-1.7,39.4-19.6,39.4-19.6s0,160.3,0,164.2
	c0,7.9-5.5,32.7-32.7,32.7s-377.6,0-377.6,0s-30.1-0.6-30.1-30.5C22.9,460.7,22.9,407.7,22.9,407.7z"/>
<path class="st3" d="M463.2-1c0,86.6,0,166.5,0,166.5s-7.4,20.8-31.9,24.6c-28,1-44-11.9-64.1-11.1c-48-0.4-62.5,36.2-90.9,36.2
	c-37.7,0-37.2-13.5-60.8-13.8c-39.1,0.9-43.6,34.6-85.4,35.4c-28.6,0-24.2-12.4-52.9-12.4c-26,1.7-54.2,27.1-54.2,27.1
	s0-128.8,0-251.5"/>
<g>
</g>
<g>
</g>
<g>
</g>
<g>
</g>
<g>
</g>
<g>
</g>
</svg>
