<svg width="24" height="24" fill="none" xmlns="http://www.w3.org/2000/svg"><path d="M11.995 15.497a3.71 3.71 0 0 0 2.572-1.025 3.435 3.435 0 0 0 1.065-2.475c0-.928-.383-1.818-1.065-2.474a3.71 3.71 0 0 0-2.572-1.026 3.71 3.71 0 0 0-2.57 1.026 3.435 3.435 0 0 0-1.066 2.474c0 .929.383 1.819 1.065 2.475a3.71 3.71 0 0 0 2.572 1.025ZM21.091 5H2.909a.927.927 0 0 0-.643.256.859.859 0 0 0-.266.619v12.25c0 .232.096.455.266.619.17.164.402.256.643.256h18.182a.927.927 0 0 0 .643-.256.859.859 0 0 0 .266-.619V5.875a.859.859 0 0 0-.266-.619A.927.927 0 0 0 21.09 5ZM3.818 15.188v-6.38c.505-.147.965-.411 1.338-.77a3.05 3.05 0 0 0 .799-1.288h12.082c.152.487.428.93.802 1.29.375.36.836.624 1.343.769v6.377c-.508.145-.97.41-1.344.77-.375.361-.65.806-.802 1.294H5.955a3.05 3.05 0 0 0-.799-1.29 3.213 3.213 0 0 0-1.338-.772Z" fill="#2FBA3D"/></svg>