<svg width="24" height="24" viewBox="0 0 24 24" fill="none" xmlns="http://www.w3.org/2000/svg">
<rect x="2" y="4.22217" width="20" height="15.5556" rx="2" fill="#8C8F96"/>
<path d="M11.9357 12.8704C11.4918 12.8704 11.1318 13.2186 11.1318 13.6482C11.1318 14.0777 11.4918 14.4259 11.9357 14.4259H16.831C17.275 14.4259 17.6349 14.0777 17.6349 13.6482C17.6349 13.2186 17.275 12.8704 16.831 12.8704H11.9357Z" fill="white"/>
<path d="M11.1318 10.5371C11.1318 10.1075 11.4918 9.75928 11.9357 9.75928H18.9748C19.4188 9.75928 19.7787 10.1075 19.7787 10.5371C19.7787 10.9666 19.4188 11.3148 18.9748 11.3148H11.9357C11.4918 11.3148 11.1318 10.9666 11.1318 10.5371Z" fill="white"/>
<path d="M5.51885 13.3366C5.51167 13.7547 5.61939 14.0847 5.84201 14.3267C6.06463 14.5688 6.34111 14.7228 6.67145 14.7888V12.4895C6.63555 12.4749 6.58528 12.4602 6.52065 12.4455C6.4632 12.4235 6.39856 12.4052 6.32675 12.3905C6.06104 12.3172 5.79892 12.2329 5.54039 12.1375C5.28187 12.0348 5.04847 11.9028 4.84022 11.7415C4.63914 11.5728 4.47756 11.3674 4.35548 11.1254C4.23339 10.8761 4.17235 10.568 4.17235 10.2013C4.17235 9.82728 4.24057 9.49725 4.37702 9.21122C4.52065 8.92519 4.70736 8.68684 4.93716 8.49615C5.16697 8.29813 5.43267 8.14778 5.73429 8.0451C6.03591 7.93509 6.34829 7.86909 6.67145 7.84708V7H7.307V7.84708C7.63016 7.88376 7.93178 7.9571 8.21185 8.06711C8.4991 8.16978 8.75045 8.31647 8.96589 8.50715C9.18133 8.6905 9.35727 8.92153 9.49372 9.20022C9.63016 9.47891 9.70916 9.80895 9.7307 10.1903H8.20108C8.1939 9.89696 8.10413 9.6476 7.93178 9.44224C7.75943 9.23689 7.55117 9.13421 7.307 9.13421V11.0814C7.39318 11.1034 7.47935 11.1254 7.56553 11.1474C7.65889 11.1694 7.75583 11.1951 7.85637 11.2244C8.38779 11.3711 8.79713 11.5545 9.08438 11.7745C9.37163 11.9872 9.58348 12.2109 9.71993 12.4455C9.85637 12.6802 9.93537 12.9149 9.95691 13.1496C9.98564 13.3843 10 13.5933 10 13.7767C10 13.938 9.9605 14.1434 9.88151 14.3927C9.80251 14.6348 9.65889 14.8731 9.45063 15.1078C9.24955 15.3425 8.97666 15.5515 8.63196 15.7349C8.28725 15.9182 7.8456 16.0282 7.307 16.0649V17H6.67145V16.0649C5.86715 16.0062 5.23878 15.7532 4.78636 15.3058C4.33393 14.8585 4.07181 14.2021 4 13.3366H5.51885ZM7.307 14.7888C7.43627 14.7741 7.56912 14.7448 7.70556 14.7008C7.84919 14.6494 7.97486 14.5798 8.08258 14.4917C8.19749 14.4037 8.29084 14.2974 8.36266 14.1727C8.43447 14.0407 8.47038 13.8867 8.47038 13.7107C8.47038 13.4246 8.38061 13.212 8.20108 13.0726C8.02872 12.9259 7.7307 12.7939 7.307 12.6766V14.7888ZM6.67145 9.13421C6.54937 9.13421 6.43088 9.15255 6.31598 9.18922C6.20108 9.22589 6.09695 9.28456 6.00359 9.36524C5.91023 9.43858 5.83483 9.53392 5.77738 9.65127C5.72711 9.76128 5.70197 9.89329 5.70197 10.0473C5.70197 10.2893 5.77738 10.4763 5.92819 10.6084C6.07899 10.7404 6.32675 10.8467 6.67145 10.9274V9.13421Z" fill="white"/>
</svg>
