<svg width="24" height="24" fill="none" xmlns="http://www.w3.org/2000/svg"><path d="M16.249 6.018a6.335 6.335 0 0 0-.46-.018c-1.447 0-2.819.555-3.802 1.533A5.384 5.384 0 0 0 8.204 6C5.336 6.002 3 8.18 3 10.863V17h2.804v-6.063c0-1.113.978-2.14 2.13-2.25.082-.006.162-.01.237-.01 1.297 0 2.355.989 2.362 2.202v6.119H13.4v-6.072c0-1.107.972-2.133 2.131-2.243.082-.007.162-.011.237-.011 1.297 0 2.362.985 2.367 2.191V17H21v-6.063a4.802 4.802 0 0 0-1.364-3.327 5.24 5.24 0 0 0-3.387-1.592Z" fill="#000"/></svg>