<svg width="24" height="24" viewBox="0 0 24 24" fill="none" xmlns="http://www.w3.org/2000/svg">
<rect x="2" y="2" width="20" height="20" rx="10" fill="#8C8F96"/>
<path d="M10.0251 13.8713C10.0156 14.4565 10.1592 14.9186 10.456 15.2574C10.7528 15.5963 11.1215 15.8119 11.5619 15.9043V12.6854C11.5141 12.6648 11.447 12.6443 11.3609 12.6238C11.2843 12.593 11.1981 12.5673 11.1023 12.5468C10.7481 12.4441 10.3986 12.326 10.0539 12.1925C9.70916 12.0488 9.39797 11.864 9.12029 11.6381C8.85218 11.4019 8.63674 11.1144 8.47397 10.7756C8.31119 10.4265 8.2298 9.99523 8.2298 9.48185C8.2298 8.9582 8.32077 8.49615 8.50269 8.09571C8.6942 7.69527 8.94315 7.36157 9.24955 7.09461C9.55595 6.81738 9.91023 6.60689 10.3124 6.46315C10.7145 6.30913 11.1311 6.21672 11.5619 6.18592V5H12.4093V6.18592C12.8402 6.23726 13.2424 6.33993 13.6158 6.49395C13.9988 6.6377 14.3339 6.84305 14.6212 7.11001C14.9084 7.3667 15.143 7.69014 15.325 8.08031C15.5069 8.47048 15.6122 8.93253 15.6409 9.46645H13.6014C13.5919 9.05574 13.4722 8.70664 13.2424 8.41914C13.0126 8.13165 12.7349 7.9879 12.4093 7.9879V10.714C12.5242 10.7448 12.6391 10.7756 12.754 10.8064C12.8785 10.8372 13.0078 10.8731 13.1418 10.9142C13.8504 11.1195 14.3962 11.3762 14.7792 11.6843C15.1622 11.982 15.4446 12.2952 15.6266 12.6238C15.8085 12.9523 15.9138 13.2809 15.9425 13.6095C15.9808 13.938 16 14.2307 16 14.4873C16 14.7132 15.9473 15.0007 15.842 15.3498C15.7367 15.6887 15.5452 16.0224 15.2675 16.3509C14.9994 16.6795 14.6355 16.9721 14.1759 17.2288C13.7163 17.4855 13.1275 17.6395 12.4093 17.6909V19H11.5619V17.6909C10.4895 17.6087 9.65171 17.2545 9.04847 16.6282C8.44524 16.0018 8.09575 15.0829 8 13.8713H10.0251ZM12.4093 15.9043C12.5817 15.8838 12.7588 15.8427 12.9408 15.7811C13.1323 15.7092 13.2998 15.6117 13.4434 15.4884C13.5966 15.3652 13.7211 15.2164 13.8169 15.0418C13.9126 14.857 13.9605 14.6414 13.9605 14.3949C13.9605 13.9945 13.8408 13.6967 13.6014 13.5017C13.3716 13.2963 12.9743 13.1115 12.4093 12.9472V15.9043ZM11.5619 7.9879C11.3992 7.9879 11.2412 8.01357 11.088 8.06491C10.9348 8.11625 10.7959 8.19839 10.6715 8.31133C10.547 8.41401 10.4464 8.54749 10.3698 8.71177C10.3028 8.86579 10.2693 9.0506 10.2693 9.26623C10.2693 9.60506 10.3698 9.86689 10.5709 10.0517C10.772 10.2365 11.1023 10.3854 11.5619 10.4984V7.9879Z" fill="white"/>
</svg>
