<svg xmlns="http://www.w3.org/2000/svg" fill="none" viewBox="0 0 24 25"><path fill="currentColor" d="M20.6 16.895c-.54 0-.978.451-.98 1.01 0 .345-.002.692-.005 1.038a3.13 3.13 0 0 1-.081.76c-.317 1.198-1.233 1.893-2.487 1.894-4.158.003-8.316.002-12.474-.002-.247 0-.502-.015-.738-.08-1.146-.316-1.84-1.276-1.842-2.566-.006-4.288-.003-8.576 0-12.864 0-.42.047-.838.242-1.217.5-.973 1.284-1.444 2.357-1.442 3.335.007 8.466.005 12.11.006.545 0 .985-.455.985-1.016 0-.564-.441-1.019-.985-1.019H4.592c-.668 0-1.328.078-1.933.389C.987 2.646.047 4.016.039 5.97c-.015 4.365-.004 8.73-.004 13.095 0 .103.002.206.009.308.044.69.205 1.35.56 1.943.908 1.525 2.223 2.315 3.972 2.314 4.15-.003 8.3 0 12.449-.003.248 0 .497-.018.744-.045 2.012-.228 3.735-2.105 3.788-4.195.011-.492.018-.984.022-1.477.004-.56-.436-1.016-.98-1.016Z"/><path fill="currentColor" d="M23.33 3.967a2.175 2.175 0 0 0-3.077 0L11.95 12.27a.42.42 0 0 0-.029.031.22.22 0 0 1-.33 0l-.023-.026-2.56-2.562a2.178 2.178 0 0 0-3.081 3.079c1.81 1.81 4.125 4.12 5.01 4.995.164.163.403.286.629.345.418.108.761-.08 1.057-.378 1.238-1.244 2.48-2.483 3.722-3.724l6.986-6.985c.85-.85.85-2.228 0-3.078Z"/></svg>