<svg xmlns="http://www.w3.org/2000/svg" fill="none" viewBox="0 0 24 25"><path fill="currentColor" d="M19.463 13.521c-.003-.464-.242-.814-.635-.946-.623-.21-1.23.242-1.232.925-.002 2.423 0 4.846 0 7.27 0 .704-.359 1.068-1.055 1.068H3.746c-.692 0-1.05-.357-1.05-1.047V7.997c0-.701.36-1.059 1.061-1.059h7.27c.564 0 .977-.399.98-.928.002-.53-.408-.936-.97-.937-2.481-.004-4.963-.014-7.445.002A2.778 2.778 0 0 0 .829 7.872c-.004 4.345-.002 8.69 0 13.035 0 .553.14 1.07.456 1.523.542.779 1.257 1.241 2.246 1.236 2.206-.011 4.41-.003 6.616-.003l6.813-.001c.108 0 .22-.006.323-.03 1.3-.3 2.175-1.41 2.18-2.774.007-1.725.002-3.45.002-5.175 0-.72.003-1.44 0-2.162h-.002Z"/><path fill="currentColor" d="M22.622 2.157c-.78-.888-2.103-1.106-3.032-.414-.606.452-8.608 8.516-9.987 9.9a.71.71 0 0 0-.175.338c-.22 1.053-.432 2.108-.64 3.163-.085.426.19.684.627.596 1.005-.2 2.01-.403 3.016-.597.223-.043.4-.14.562-.302 2.353-2.36 9.399-9.404 9.595-9.618a2.301 2.301 0 0 0 .034-3.066Z"/></svg>