<svg xmlns="http://www.w3.org/2000/svg" fill="none" viewBox="0 0 24 25"><path fill="currentColor" d="m.994 5.989 2.558 1.994c1.703 1.323 3.405 2.649 5.11 3.97 2.004 1.556 4.642 1.57 6.646.026 2.02-1.559 4.03-3.13 6.044-4.695l.084-.065 1.568-1.223a.988.988 0 0 0 .274-1.231c-.73-1.404-2.151-2.272-3.872-2.273-4.975-.004-9.951-.002-14.927 0-.208 0-.417.012-.622.049-1.41.243-2.52 1.053-3.126 2.198a.993.993 0 0 0 .263 1.25Zm2.414-1.053c.229-.148.476-.23.74-.272.174-.026.35-.037.525-.037 4.886-.002 9.77 0 14.655-.002.444 0 .866.07 1.262.309.078.047.083.16.01.217l-3.6 2.8-2.89 2.248c-1.335 1.04-2.863 1.049-4.195.015C7.742 8.528 5.572 6.838 3.4 5.15a.133.133 0 0 1 .008-.215Z"/><path fill="currentColor" d="m22.931 8.875-1.085.845a.528.528 0 0 0-.206.419v7.94c0 .903-.37 1.597-1.006 1.978-.31.186-.67.273-1.032.274l-15.156.027c-.146 0-.292-.011-.434-.044-1.029-.242-1.65-1.06-1.65-2.247v-7.932a.53.53 0 0 0-.206-.42l-1.085-.843a.533.533 0 0 0-.86.42c0 3.13.004 7.814.007 8.954 0 .116.003.231.015.347.22 2.188 1.829 3.72 3.927 3.91.062.006.125.008.188.007l15.48-.007c.077 0 .153-.005.229-.016 2.229-.347 3.724-2.089 3.728-4.342.002-1.211.003-5.853.003-8.85a.531.531 0 0 0-.858-.42h.002Z"/></svg>