<svg xmlns="http://www.w3.org/2000/svg" fill="none" viewBox="0 0 24 25"><path fill="currentColor" stroke="currentColor" stroke-width=".5" d="M23.285 9.794a1.73 1.73 0 0 0-1.67-1.213h-5.669a.55.55 0 0 1-.524-.38l-1.751-5.392A1.73 1.73 0 0 0 12 1.596a1.73 1.73 0 0 0-1.67 1.214L8.577 8.2a.55.55 0 0 1-.524.38h-5.67a1.73 1.73 0 0 0-1.67 1.215 1.73 1.73 0 0 0 .638 1.963l4.586 3.332a.55.55 0 0 1 .2.617l-1.751 5.39a1.73 1.73 0 0 0 .639 1.965c.313.228.672.342 1.032.341.359 0 .718-.113 1.031-.341l4.588-3.332a.546.546 0 0 1 .647 0l4.586 3.332a1.724 1.724 0 0 0 2.064 0 1.73 1.73 0 0 0 .64-1.964l-1.753-5.391a.55.55 0 0 1 .2-.617l4.587-3.332a1.73 1.73 0 0 0 .637-1.964Zm-1.346.99-4.587 3.331a1.752 1.752 0 0 0-.638 1.964l1.752 5.39a.535.535 0 0 1-.2.618.536.536 0 0 1-.647 0l-4.586-3.332-.008-.006a2.132 2.132 0 0 1-.891-1.73V3.24c0-.225.316-.278.387-.065l.003.008 1.752 5.39a1.75 1.75 0 0 0 1.67 1.214h5.669c.371 0 .495.291.524.38.029.09.1.399-.2.617Z"/></svg>