<svg xmlns="http://www.w3.org/2000/svg" fill="none" viewBox="0 0 24 25"><path fill="currentColor" stroke="currentColor" stroke-linecap="round" stroke-linejoin="round" stroke-width="2.5" d="M7.11595 3.60205C7.85395 3.60205 8.58695 3.79405 9.25295 4.17005C9.94145 4.56467 10.5238 5.1206 10.9499 5.79005C11.0633 5.96549 11.2187 6.10973 11.4022 6.20961C11.5856 6.30949 11.7911 6.36182 11.9999 6.36182C12.2088 6.36182 12.4143 6.30949 12.5977 6.20961C12.7812 6.10973 12.9366 5.96549 13.0499 5.79005C13.9259 4.43605 15.336 3.60205 16.884 3.60205C19.392 3.60205 21.6019 5.84905 21.6019 8.84805C21.6019 11.6541 20.064 14.4661 17.926 16.8151C15.966 18.9701 13.6549 20.5651 11.9999 21.2791C10.3449 20.5661 8.03495 18.9701 6.07395 16.8151C3.93695 14.4661 2.39795 11.6551 2.39795 8.84805C2.39795 5.84805 4.60795 3.60205 7.11595 3.60205Z"/></svg>