<svg xmlns="http://www.w3.org/2000/svg" fill="none" viewBox="0 0 24 25"><path fill="currentColor" d="M7.08 23.666c-.032-.063-.08-.125-.09-.191-.238-1.496-.422-3-.162-4.505.163-.948.436-1.877.666-2.814.337-1.373.681-2.743 1.014-4.117a.607.607 0 0 0-.03-.329c-.44-1.212-.53-2.427.04-3.618.413-.866 1.091-1.431 2.082-1.506 1.07-.082 1.837.637 1.883 1.713.025.613-.117 1.196-.291 1.774-.27.895-.543 1.789-.823 2.681-.5 1.588.7 2.706 2.118 2.668 1.221-.033 2.176-.602 2.933-1.529.754-.922 1.168-1.997 1.357-3.162.2-1.234.118-2.45-.347-3.617-.74-1.858-2.144-2.917-4.088-3.262-1.466-.26-2.92-.174-4.283.464-2.243 1.05-3.433 2.839-3.523 5.314a4.325 4.325 0 0 0 1.01 2.986c.118.143.188.29.14.478-.12.471-.229.944-.36 1.412-.104.372-.218.416-.567.249-.838-.4-1.436-1.055-1.879-1.849-1.348-2.417-1.217-4.845.058-7.23 1.007-1.882 2.618-3.089 4.628-3.734 2.491-.802 5.002-.861 7.46.126 2.348.944 4.005 2.585 4.741 5.053.485 1.622.361 3.248-.104 4.85-.516 1.773-1.47 3.26-2.989 4.347-1.305.934-2.77 1.356-4.368 1.24-.98-.073-1.865-.42-2.566-1.143-.1-.103-.183-.222-.293-.356-.168.611-.359 1.195-.487 1.793-.433 2.022-1.35 3.817-2.523 5.497-.074.107-.151.212-.227.317h-.13Z"/></svg>