<svg xmlns="http://www.w3.org/2000/svg" fill="none" viewBox="0 0 24 25"><path fill="currentColor" stroke="currentColor" stroke-width=".5" d="M22.818 12.114a1.42 1.42 0 0 0-1.403-1.06c-.937-.005-4.617-.005-7.965-.005V8.166c0-1.659.002-3.32 0-4.978-.002-.904-.597-1.552-1.43-1.56-.835-.009-1.465.631-1.466 1.526-.003 1.45-.004 4.568-.004 7.896H2.69c-.907.003-1.555.598-1.563 1.429-.008.835.632 1.465 1.526 1.467 1.45.002 4.568.004 7.897.004 0 3.327.004 6.445.01 7.895 0 .28.087.587.221.835.308.567.985.812 1.604.637a1.42 1.42 0 0 0 1.061-1.403c.004-.937.004-4.616.004-7.964 3.328 0 6.445-.004 7.896-.011.28 0 .587-.087.835-.221.566-.308.811-.984.637-1.604Z"/></svg>