<svg xmlns="http://www.w3.org/2000/svg" fill="none" viewBox="0 0 24 25"><path fill="currentColor" stroke="currentColor" stroke-width=".3" d="m22.45 23.13.044-.043v-.003c.386-.433.37-1.099-.047-1.513l-7.312-7.257c.54-.696.95-1.441 1.227-2.235a7.772 7.772 0 0 0 .437-2.586c0-2.207-.776-4.094-2.325-5.653-1.55-1.56-3.435-2.341-5.649-2.341s-4.105.781-5.664 2.34C1.6 5.4.82 7.284.82 9.49c0 2.203.78 4.089 2.337 5.648 1.559 1.56 3.466 2.34 5.713 2.34.937 0 1.822-.15 2.655-.452a6.934 6.934 0 0 0 2.083-1.178l7.284 7.284c.43.43 1.127.43 1.557 0Zm-9.487-9.506C11.831 14.77 10.46 15.34 8.84 15.34c-1.636 0-3.022-.571-4.167-1.716-1.145-1.146-1.715-2.522-1.715-4.136 0-1.614.57-2.99 1.715-4.135C5.818 4.208 7.204 3.636 8.84 3.636c1.62 0 2.99.571 4.123 1.716l.107-.105-.107.105c1.134 1.146 1.699 2.522 1.699 4.136 0 1.614-.565 2.99-1.699 4.136Z"/></svg>