<svg xmlns="http://www.w3.org/2000/svg" fill="none" viewBox="0 0 24 25"><path fill="currentColor" stroke="currentColor" d="M8.722 8.3a.635.635 0 0 1-.603.44H2.543c-1.584 0-2.242 2.026-.961 2.957l4.51 3.277a.635.635 0 0 1 .231.71L4.6 20.987c-.489 1.506 1.235 2.758 2.516 1.827l4.51-3.277-.293-.405.294.405a.635.635 0 0 1 .746 0l4.511 3.277c1.281.931 3.005-.321 2.516-1.827l-1.723-5.303a.635.635 0 0 1 .23-.71l-.294-.404.294.404 4.511-3.277c1.281-.931.623-2.958-.96-2.958H15.88a.635.635 0 0 1-.603-.438l-1.723-5.303c-.49-1.506-2.62-1.506-3.11 0L8.722 8.3Z"/></svg>