<svg xmlns="http://www.w3.org/2000/svg" fill="none" viewBox="0 0 24 25"><path fill="currentColor" d="M22.868 22.62c.447-.797.331-1.723-.331-2.39-.905-.913-4.475-4.483-7.723-7.73l2.797-2.797c1.61-1.61 3.221-3.219 4.83-4.83.874-.88.925-2.085.126-2.9-.802-.818-2.034-.809-2.903.058-1.41 1.404-4.435 4.427-7.665 7.656L9.204 6.892c-1.61-1.61-3.219-3.222-4.83-4.83-.882-.877-2.087-.928-2.901-.13-.818.802-.809 2.034.057 2.903C2.936 6.245 5.958 9.27 9.188 12.5a2972.637 2972.637 0 0 0-7.649 7.67 2.507 2.507 0 0 0-.595 1.024c-.251.848.167 1.742.937 2.174.797.447 1.723.331 2.39-.332.913-.904 4.483-4.474 7.73-7.722 3.229 3.228 6.257 6.248 7.67 7.649.272.272.654.485 1.024.595.849.252 1.743-.167 2.174-.937Z"/></svg>