<svg xmlns="http://www.w3.org/2000/svg" fill="none" viewBox="0 0 24 25"><path fill="currentColor" d="M4.016 14.324c0-1.847-.001-2.178 0-4.025 0-.57.314-.97.82-1.066a.994.994 0 0 1 1.176.911c.006.085.003.171.003.257v9.263c0 1.18.818 2 1.995 2h7.971c1.183 0 2.002-.816 2.002-1.992v-9.38c0-.526.282-.923.732-1.043a.99.99 0 0 1 1.247.81c.018.107.02.217.02.325.002 3.608.003 5.702 0 9.31 0 1.972-1.333 3.567-3.273 3.914-.23.041-.465.055-.698.055a3896.4 3896.4 0 0 1-8.018.002c-2.254-.001-3.977-1.73-3.98-3.987v-5.353h.003ZM8.014 4.702c0-.656-.009-1.652.005-2.273.005-.189.037-.394.118-.561.176-.36.5-.53.895-.53 1.979-.004 3.958-.007 5.937 0 .611.003 1.011.425 1.017 1.043.006.553 0 1.48 0 2.033v.288h.293c1.207 0 2.414-.003 3.622 0 .626.002 1.071.418 1.077.99A1 1 0 0 1 20.04 6.7c-.054.004-.11.002-.164.002H4.124c-.617 0-1.057-.368-1.099-.916-.047-.61.414-1.08 1.074-1.083 1.2-.004 2.4-.001 3.6-.001h.315v.001Zm2-.015h3.97V3.76a.405.405 0 0 0-.405-.405h-3.16a.405.405 0 0 0-.405.405v.928Z"/><path fill="currentColor" d="M9.008 14.177c0-1.16-.003-2.322.002-3.482a.99.99 0 0 1 .804-.984.984.984 0 0 1 1.084.546c.06.131.103.284.104.427.006 2.328.008 4.658 0 6.986-.001.446-.23.77-.65.938a.98.98 0 0 1-1.071-.25 1.037 1.037 0 0 1-.275-.747c.004-1.144 0-2.29.002-3.434ZM14.993 14.207c0 1.153.003 2.305-.002 3.458a.98.98 0 0 1-.732.968c-.428.12-.894-.049-1.107-.44a1.257 1.257 0 0 1-.152-.576c-.01-2.29-.01-4.58-.005-6.87.001-.617.436-1.058 1.012-1.053.574.006.985.453.986 1.078.002 1.144 0 2.29 0 3.435Z"/></svg>