<svg xmlns="http://www.w3.org/2000/svg" fill="none" viewBox="0 0 24 25"><path fill="currentColor" stroke="currentColor" stroke-width=".5" d="M12.02 7.011c-1.023 0-1.892.353-2.598 1.05-.707.698-1.06 1.567-1.06 2.588 0 1.022.353 1.891 1.05 2.598.697.707 1.566 1.06 2.588 1.06s1.89-.353 2.598-1.05c.706-.698 1.06-1.567 1.06-2.588 0-1.022-.354-1.891-1.05-2.598-.698-.707-1.567-1.06-2.589-1.06Zm1.47 5.119c-.382.382-.87.573-1.48.573-.612 0-1.099-.191-1.48-.573-.383-.382-.574-.87-.574-1.48 0-.612.191-1.099.573-1.48.382-.383.87-.574 1.48-.574.612 0 1.099.191 1.48.573.383.382.574.87.574 1.48 0 .612-.191 1.099-.573 1.48Z"/><path fill="currentColor" stroke="currentColor" stroke-width=".5" d="M22.026 8.272c-.575-1.317-1.346-2.468-2.34-3.453a11.141 11.141 0 0 0-3.453-2.34c-1.317-.576-2.721-.859-4.223-.859-1.502 0-2.907.283-4.223.859a11.133 11.133 0 0 0-3.463 2.34 11.142 11.142 0 0 0-2.34 3.453c-.576 1.317-.859 2.721-.859 4.223 0 1.502.283 2.907.858 4.223a11.132 11.132 0 0 0 2.341 3.463 11.134 11.134 0 0 0 3.463 2.34c1.326.576 2.73.859 4.223.859 1.492 0 2.896-.283 4.213-.858 1.317-.576 2.468-1.346 3.453-2.341a11.302 11.302 0 0 0 2.34-3.463c.576-1.326.859-2.73.859-4.223 0-1.492-.283-2.897-.858-4.213l.01-.01Zm-7.09 13.03a9.894 9.894 0 0 1-2.926.44 9.894 9.894 0 0 1-2.926-.44c-.956-.292-1.892-.8-2.81-1.521.927-.654 1.864-1.151 2.83-1.492a8.62 8.62 0 0 1 2.906-.517c.975 0 1.95.175 2.906.517.956.34 1.902.838 2.829 1.492-.927.722-1.863 1.229-2.81 1.521Zm5.813-5.657c-.332.995-.898 1.98-1.697 2.965a15.587 15.587 0 0 0-3.414-1.833c-1.131-.43-2.34-.634-3.628-.634-1.288 0-2.487.214-3.619.634-1.121.429-2.253 1.034-3.394 1.833-.8-.975-1.365-1.97-1.716-2.965a9.404 9.404 0 0 1-.517-3.15c0-2.623.887-4.828 2.653-6.593 1.765-1.765 3.96-2.653 6.593-2.653s4.828.888 6.593 2.653c1.765 1.765 2.653 3.96 2.653 6.593a9.652 9.652 0 0 1-.507 3.15Z"/></svg>