<svg xmlns="http://www.w3.org/2000/svg" fill="none" viewBox="0 0 24 25"><path fill="currentColor" d="M23.189 4.647c0-.664-.169-1.284-.548-1.83-.65-.934-1.51-1.49-2.698-1.483-2.648.014-5.295.004-7.943.004l-8.18.001c-.13 0-.263.007-.388.036C1.872 1.736.82 3.068.814 4.705.807 6.777.812 8.849.812 10.92c0 .865-.003.68.001 1.545.003.558.29.978.762 1.136.748.252 1.478-.29 1.479-1.11.003-2.91 0-4.769 0-7.68 0-.844.431-1.281 1.267-1.281h15.363c.83 0 1.261.429 1.261 1.256v15.362c0 .842-.433 1.272-1.275 1.272h-7.68c-.676 0-1.171.479-1.175 1.114-.002.636.49 1.124 1.164 1.126 2.98.004 4.91.016 7.89-.004a3.338 3.338 0 0 0 3.318-3.359c.005-5.216.002-10.433.001-15.65h.001Z"/><path fill="currentColor" d="M16.604 8.218c-.935-1.067-2.524-1.328-3.64-.497-.727.542-8.66 8.55-10.317 10.213a.855.855 0 0 0-.21.406c-.264 1.264-.518 2.53-.77 3.797-.101.511.23.821.755.716 1.206-.24 2.413-.484 3.62-.717.268-.051.481-.167.675-.362 2.826-2.834 9.611-9.617 9.847-9.875a2.763 2.763 0 0 0 .04-3.681Z"/></svg>