<svg xmlns="http://www.w3.org/2000/svg" fill="none" viewBox="0 0 24 25"><path fill="currentColor" stroke="currentColor" stroke-width=".5" d="m13.985 10.734 7.117-8.302a.487.487 0 0 0-.366-.804l-.529-.003a.487.487 0 0 0-.372.17L13.168 9.55 7.837 1.834a.487.487 0 0 0-.402-.21l-5.23.009a.487.487 0 0 0-.4.763L9.592 13.71l-7.62 8.863a.487.487 0 0 0 .37.804h.582a.487.487 0 0 0 .37-.17l7.118-8.304 5.688 8.264c.091.131.241.21.402.21h5.289c.392 0 .623-.44.4-.764l-8.206-11.878Zm-2.55 2.976L3.997 2.944H6.79L19.94 22.05h-2.742l-5.763-8.34Z"/></svg>