<svg xmlns="http://www.w3.org/2000/svg" fill="none" viewBox="0 0 32 32"><path fill="currentColor" d="M15.9978 1.87281C19.8987 1.87281 23.4298 3.45633 25.9844 6.01092C28.5446 8.56551 30.1226 12.0967 30.1226 15.9976C30.1226 19.8984 28.5446 23.4296 25.9844 25.9842C24.6745 27.2978 23.1179 28.3396 21.4041 29.0498C19.6902 29.76 17.8529 30.1244 15.9978 30.1223C14.1427 30.1244 12.3054 29.76 10.5916 29.0498C8.87771 28.3396 7.3211 27.2978 6.01117 25.9842C4.69754 24.6743 3.65572 23.1176 2.94556 21.4038C2.23541 19.69 1.87093 17.8527 1.87306 15.9976C1.87306 12.0967 3.45657 8.56551 6.01117 6.01092C7.3211 4.6973 8.87771 3.65547 10.5916 2.94532C12.3054 2.23517 14.1427 1.87068 15.9978 1.87281ZM25.1568 6.84406C23.9551 5.64002 22.5274 4.68531 20.9556 4.03481C19.3838 3.38431 17.6989 3.05083 15.9978 3.05355C14.2976 3.05156 12.6138 3.38539 11.043 4.03587C9.47219 4.68635 8.04532 5.64068 6.8443 6.84406C5.64026 8.04573 4.68556 9.4735 4.03505 11.0453C3.38455 12.6171 3.05108 14.302 3.0538 16.0031C3.0538 19.5729 4.49938 22.8116 6.8443 25.1566C8.04598 26.3606 9.47374 27.3153 11.0456 27.9658C12.6174 28.6163 14.3022 28.9498 16.0033 28.9471C17.7035 28.9491 19.3873 28.6152 20.9581 27.9648C22.5289 27.3143 23.9558 26.36 25.1568 25.1566C26.3609 23.9549 27.3156 22.5271 27.9661 20.9553C28.6166 19.3835 28.95 17.6987 28.9473 15.9976C28.9493 14.2974 28.6155 12.6136 27.965 11.0428C27.3145 9.47195 26.3602 8.04508 25.1568 6.84406Z"/><path fill="currentColor" d="M26.1168 7.81506C24.7264 8.65372 23.1263 9.30478 21.4049 9.74618C19.689 10.1876 17.8571 10.4193 15.9978 10.4193C14.0225 10.4193 12.0803 10.16 10.2761 9.66342C8.53919 9.2025 6.88573 8.47074 5.37661 7.49505L6.02767 6.51294C7.34635 7.39022 8.89676 8.06887 10.5851 8.53234C12.279 9.00132 14.1163 9.24961 15.9978 9.24961C17.7689 9.24961 19.5014 9.02891 21.1125 8.6151C22.6582 8.22813 24.1395 7.61851 25.5099 6.80537L26.1168 7.81506ZM25.5099 25.1951C24.1395 24.382 22.6582 23.7724 21.1125 23.3854C19.4405 22.9628 17.7222 22.7515 15.9978 22.7564C14.1218 22.7564 12.279 22.9992 10.5851 23.4682C8.96967 23.8961 7.43168 24.5757 6.02767 25.482L5.37661 24.5054C6.88573 23.5298 8.53919 22.798 10.2761 22.3371C13.9161 21.3471 17.7506 21.3186 21.4049 22.2543C23.1263 22.6957 24.7264 23.3468 26.1168 24.1854L25.5099 25.1951ZM2.46338 15.4126H29.5101V16.5879H2.46338V15.4126Z"/><path fill="currentColor" d="M12.4391 3.04252C11.6027 4.91352 10.9897 6.87657 10.6128 8.89105C10.1808 11.1273 9.96461 13.3999 9.96726 15.6775C9.96726 18.177 10.2211 20.6212 10.6901 22.8723C11.159 25.118 11.8487 27.187 12.7315 28.9416L11.6832 29.4657C10.699 27.448 9.97948 25.3116 9.54242 23.1096C9.03934 20.6662 8.7879 18.1777 8.79204 15.6831C8.79204 13.2664 9.01826 10.8884 9.45414 8.66483C9.89554 6.44129 10.5356 4.3612 11.3687 2.55698L12.4391 3.04252ZM20.627 2.55698C21.4602 4.36672 22.1057 6.44129 22.5416 8.66483C22.983 10.8884 23.2037 13.2664 23.2037 15.6831C23.2037 18.2487 22.9499 20.7702 22.4588 23.1096C21.9623 25.46 21.245 27.6229 20.3125 29.4657L19.2642 28.9361C20.147 27.187 20.8367 25.118 21.3057 22.8723C21.7802 20.6212 22.0285 18.1825 22.0285 15.6831C22.0285 13.3381 21.8078 11.0373 21.3884 8.89105C21.0115 6.87657 20.3985 4.91352 19.5622 3.04252L20.627 2.55698ZM16.5882 2.53491V29.4602H15.413V2.53491H16.5882Z"/></svg>