<svg xmlns="http://www.w3.org/2000/svg" viewBox="0 0 32 32" fill="none"><path d="M27.143 24.571H4.857A.857.857 0 0 0 4 25.43v1.714a.857.857 0 0 0 .857.857h22.286a.857.857 0 0 0 .857-.857v-1.714a.857.857 0 0 0-.857-.858Zm0-6.857H4.857a.857.857 0 0 0-.857.857v1.715a.857.857 0 0 0 .857.857h22.286a.857.857 0 0 0 .857-.857V18.57a.857.857 0 0 0-.857-.857Zm0-6.857H4.857a.857.857 0 0 0-.857.857v1.715a.857.857 0 0 0 .857.857h22.286a.857.857 0 0 0 .857-.857v-1.715a.857.857 0 0 0-.857-.857Zm0-6.857H4.857A.857.857 0 0 0 4 4.857v1.714a.857.857 0 0 0 .857.858h22.286A.857.857 0 0 0 28 6.57V4.857A.857.857 0 0 0 27.143 4Z" fill="currentColor"/></svg>