<svg viewBox="0 0 24 24" fill="none" xmlns="http://www.w3.org/2000/svg"><path fill-rule="evenodd" clip-rule="evenodd" d="m21.555 12.852-6.076 3.689a3.126 3.126 0 0 1-3.625-.273l-2.265-1.89a1.876 1.876 0 0 0-2.24-.123L3.11 17.07l-.691-1.041 4.24-2.816a3.126 3.126 0 0 1 3.732.205l2.265 1.89c.616.515 1.49.58 2.175.164l6.076-3.689.649 1.069Z" fill="#6F7CA3"/><path fill-rule="evenodd" clip-rule="evenodd" d="M13.922 8.326a1.298 1.298 0 1 0 0 2.597 1.298 1.298 0 0 0 0-2.597Zm-2.549 1.298a2.549 2.549 0 1 1 5.098 0 2.549 2.549 0 0 1-5.098 0Z" fill="#6F7CA3"/><path fill-rule="evenodd" clip-rule="evenodd" d="M20.124 4.479H3.87a.625.625 0 0 0-.626.625V19.05c0 .345.28.625.626.625h16.254c.345 0 .625-.28.625-.625V5.104a.625.625 0 0 0-.625-.625ZM3.87 3.229c-1.036 0-1.876.84-1.876 1.875V19.05c0 1.036.84 1.876 1.876 1.876h16.254c1.036 0 1.876-.84 1.876-1.876V5.104c0-1.036-.84-1.875-1.876-1.875H3.87Z" fill="currentColor"/></svg>