<svg xmlns="http://www.w3.org/2000/svg" fill="none" viewBox="0 0 24 24"><path stroke="currentColor" stroke-linecap="round" stroke-linejoin="round" stroke-width="2" d="M4.27045 11.9997C4.27045 12.2926 4.15412 12.5734 3.94703 12.7805C3.73995 12.9876 3.45909 13.1039 3.16623 13.1039C2.87337 13.1039 2.59251 12.9876 2.38543 12.7805C2.17835 12.5734 2.06201 12.2926 2.06201 11.9997C2.06201 11.7069 2.17835 11.426 2.38543 11.2189C2.59251 11.0118 2.87337 10.8955 3.16623 10.8955C3.45909 10.8955 3.73995 11.0118 3.94703 11.2189C4.15412 11.426 4.27045 11.7069 4.27045 11.9997ZM13.1042 11.9997C13.1042 12.2926 12.9879 12.5734 12.7808 12.7805C12.5737 12.9876 12.2929 13.1039 12 13.1039C11.7071 13.1039 11.4263 12.9876 11.2192 12.7805C11.0121 12.5734 10.8958 12.2926 10.8958 11.9997C10.8958 11.7069 11.0121 11.426 11.2192 11.2189C11.4263 11.0118 11.7071 10.8955 12 10.8955C12.2929 10.8955 12.5737 11.0118 12.7808 11.2189C12.9879 11.426 13.1042 11.7069 13.1042 11.9997ZM21.938 11.9997C21.938 12.2926 21.8217 12.5734 21.6146 12.7805C21.4075 12.9876 21.1266 13.1039 20.8338 13.1039C20.5409 13.1039 20.26 12.9876 20.053 12.7805C19.8459 12.5734 19.7295 12.2926 19.7295 11.9997C19.7295 11.7069 19.8459 11.426 20.053 11.2189C20.26 11.0118 20.5409 10.8955 20.8338 10.8955C21.1266 10.8955 21.4075 11.0118 21.6146 11.2189C21.8217 11.426 21.938 11.7069 21.938 11.9997Z"/></svg>