<svg viewBox="0 0 24 24" fill="none" xmlns="http://www.w3.org/2000/svg"><path fill-rule="evenodd" clip-rule="evenodd" d="M7.746 8.496a3.504 3.504 0 1 0 0 7.008h2.127a.75.75 0 1 1 0 1.5H7.746a5.004 5.004 0 0 1 0-10.008h2.127a.75.75 0 0 1 0 1.5H7.746Zm.468 3.425a.75.75 0 0 1 .75-.75h6.515a.75.75 0 0 1 0 1.5H8.964a.75.75 0 0 1-.75-.75ZM19.758 12a3.504 3.504 0 0 0-3.504-3.504h-2.127a.75.75 0 0 1 0-1.5h2.127a5.004 5.004 0 1 1 0 10.008h-2.127a.75.75 0 0 1 0-1.5h2.127A3.504 3.504 0 0 0 19.758 12Z" fill="currentColor"/></svg>