<svg xmlns="http://www.w3.org/2000/svg" fill="none" viewBox="0 0 24 24"><path fill="currentColor" d="M5.01367 2.3999L4.91767 2.4047C4.56007 2.4359 4.24567 2.6543 4.09447 2.9783C3.95767 3.2711 3.97207 3.6095 4.12567 3.8879L4.18087 3.9791L9.89047 12.0983C10.0009 12.2567 10.0153 12.4607 9.93127 12.6311L9.89047 12.7007L4.18087 20.8223C3.96727 21.1295 3.94087 21.5279 4.11367 21.8615C4.28647 22.1927 4.62967 22.3991 5.00407 22.3991C5.29927 22.4015 5.57767 22.2719 5.76487 22.0487L5.82487 21.9719L12.1489 12.9743C12.3697 12.6575 12.3889 12.2471 12.2041 11.9135L12.1489 11.8247L5.82487 2.8295C5.63767 2.5607 5.33527 2.4023 5.01367 2.3999Z"/><path fill="currentColor" d="M19.5024 11.8248L13.1784 2.82961C12.8616 2.37361 12.2352 2.26321 11.7816 2.58001C11.3544 2.88001 11.2296 3.45121 11.4816 3.89521L11.5344 3.97921L17.2416 12.0984C17.3544 12.2568 17.3664 12.4608 17.2848 12.6312L17.2416 12.7008L11.5344 20.8224C11.3184 21.1296 11.2944 21.528 11.4672 21.8616C11.64 22.1928 11.9832 22.3992 12.3552 22.3992C12.6504 22.4016 12.9288 22.272 13.1184 22.0488L13.1784 21.972L19.5024 12.9744C19.7232 12.6576 19.7424 12.2472 19.5576 11.9136L19.5024 11.8248Z" opacity=".4"/></svg>