<svg xmlns="http://www.w3.org/2000/svg" fill="none" viewBox="0 0 24 24"><path stroke="currentColor" stroke-linecap="round" stroke-linejoin="round" d="M8.625 14.25L15.375 7.5M9.1875 8.0625H9.1995M14.8125 13.6875H14.8245M19.875 22.125V4.125C19.875 3.52826 19.6379 2.95597 19.216 2.53401C18.794 2.11205 18.2217 1.875 17.625 1.875H6.375C5.77826 1.875 5.20597 2.11205 4.78401 2.53401C4.36205 2.95597 4.125 3.52826 4.125 4.125V22.125L8.0625 19.875L12 22.125L15.9375 19.875L19.875 22.125ZM9.75 8.0625C9.75 8.21168 9.69074 8.35476 9.58525 8.46025C9.47976 8.56574 9.33668 8.625 9.1875 8.625C9.03832 8.625 8.89524 8.56574 8.78975 8.46025C8.68426 8.35476 8.625 8.21168 8.625 8.0625C8.625 7.91332 8.68426 7.77024 8.78975 7.66475C8.89524 7.55926 9.03832 7.5 9.1875 7.5C9.33668 7.5 9.47976 7.55926 9.58525 7.66475C9.69074 7.77024 9.75 7.91332 9.75 8.0625ZM15.375 13.6875C15.375 13.8367 15.3157 13.9798 15.2102 14.0852C15.1048 14.1907 14.9617 14.25 14.8125 14.25C14.6633 14.25 14.5202 14.1907 14.4148 14.0852C14.3093 13.9798 14.25 13.8367 14.25 13.6875C14.25 13.5383 14.3093 13.3952 14.4148 13.2898C14.5202 13.1843 14.6633 13.125 14.8125 13.125C14.9617 13.125 15.1048 13.1843 15.2102 13.2898C15.3157 13.3952 15.375 13.5383 15.375 13.6875Z"/></svg>