<svg xmlns="http://www.w3.org/2000/svg" fill="none" viewBox="0 0 24 24"><g><path fill="#E62305" d="M5.14285 10.2857C7.98317 10.2857 10.2857 7.98318 10.2857 5.14286C10.2857 2.30254 7.98317 0 5.14285 0C2.30253 0 -8.58307e-06 2.30254 -8.58307e-06 5.14286C-8.58307e-06 7.98318 2.30253 10.2857 5.14285 10.2857Z"/><path fill="#36F" d="M-8.58307e-06 18.8571C-8.58307e-06 21.6975 2.30253 24 5.14285 24C7.98317 24 10.2857 21.6975 10.2857 18.8571C10.2857 16.0168 7.98317 13.7143 5.14285 13.7143C2.30253 13.7143 -8.58307e-06 16.0168 -8.58307e-06 18.8571Z"/><path fill="#079874" d="M24 18.8572C24 16.0169 21.6975 13.7144 18.8572 13.7144C16.0168 13.7144 13.7143 16.0169 13.7143 18.8572C13.7143 21.6975 16.0168 24.0001 18.8572 24.0001C21.6975 24.0001 24 21.6975 24 18.8572Z"/><path fill="#FFC046" d="M18.8571 10.2857C21.6975 10.2857 24 7.98318 24 5.14286C24 2.30254 21.6975 0 18.8571 0C16.0168 0 13.7143 2.30254 13.7143 5.14286C13.7143 7.98318 16.0168 10.2857 18.8571 10.2857Z"/></g><defs><clipPath><path fill="#fff" d="M0 0H24V24H0z"/></clipPath></defs></svg>