<svg viewBox="0 0 14 14" fill="none" xmlns="http://www.w3.org/2000/svg"><path d="M10.394 4.73a1.125 1.125 0 1 1-2.25 0 1.125 1.125 0 0 1 2.25 0Zm2.345 2.843-2.83 2.83-.251.251L7.58 12.73a1.515 1.515 0 0 1-1.636.33 1.465 1.465 0 0 1-.483-.327L1.264 8.541a1.465 1.465 0 0 1-.438-1.055A1.488 1.488 0 0 1 1.26 6.43l2.085-2.085.252-.252L6.419 1.27A1.497 1.497 0 0 1 7.484.828h4.19a1.505 1.505 0 0 1 1.5 1.5v4.19a1.489 1.489 0 0 1-.435 1.055ZM8.6 9.595l.252-.252 2.822-2.821V2.326H7.477L4.405 5.4 2.32 7.485l4.203 4.19 2.079-2.078-.002-.002Z" fill="currentColor"/></svg>