<svg xmlns="http://www.w3.org/2000/svg" fill="none" viewBox="0 0 25 25"><path fill="currentColor" d="M23.1847 11.3429C23.1607 11.0045 23.1103 10.6421 23.0215 10.2557H14.7895V2.02366C14.4031 1.93726 14.0527 1.88686 13.7383 1.86046C13.4383 1.82206 13.1263 1.81006 12.8143 1.81006C12.4519 1.81006 12.1015 1.82206 11.7655 1.86046C11.4271 1.88446 11.0647 1.93486 10.6783 2.02366V10.2557H2.44627C2.35987 10.6421 2.29507 10.9925 2.27107 11.3045C2.24707 11.6165 2.23267 11.9165 2.23267 12.2285C2.23267 12.5909 2.24467 12.9413 2.27107 13.2773C2.29507 13.6157 2.35747 13.9781 2.44627 14.3645H10.6783V22.5965C11.0647 22.6829 11.4151 22.7477 11.7271 22.7717C12.0391 22.7957 12.3391 22.8101 12.6511 22.8101C13.0135 22.8101 13.3639 22.7981 13.6999 22.7717C14.0383 22.7477 14.4007 22.6853 14.7871 22.5965V14.3645H23.0191C23.1055 13.9781 23.1559 13.6277 23.1823 13.3133C23.2207 13.0133 23.2327 12.7013 23.2327 12.3893C23.2351 12.0317 23.2231 11.6813 23.1847 11.3429Z"/></svg>