<svg xmlns="http://www.w3.org/2000/svg" fill="none" viewBox="0 0 24 24"><path fill="currentColor" d="M21.0455 9.46514L13.0955 17.4151C12.7914 17.7192 12.3955 17.8681 11.9996 17.8681C11.6037 17.8681 11.2046 17.716 10.9037 17.4151L2.95372 9.46514C2.34876 8.86018 2.34876 7.87831 2.95372 7.27019L3.63786 6.58604C4.24282 5.98108 5.22469 5.98108 5.83282 6.58604L10.9069 11.6601C11.2109 11.9642 11.6069 12.113 12.0028 12.113C12.3987 12.113 12.7978 11.961 13.0987 11.6601L18.1727 6.58604C18.7777 5.98108 19.7596 5.98108 20.3677 6.58604L21.0518 7.27019C21.6504 7.87831 21.6504 8.86018 21.0455 9.46514Z"/></svg>