<svg xmlns="http://www.w3.org/2000/svg" viewBox="0 0 32 32" fill="none"><path d="M15.208 7.349v17.576H11.8v-7.643H4.552v7.643H1.168V7.35h3.384v7.12H11.8v-7.12h3.408ZM29.99 10.087h-8.04v4.432c.367-.449.871-.805 1.511-1.07a5.41 5.41 0 0 1 2.16-.424c1.168 0 2.136.265 2.904.797a4.537 4.537 0 0 1 1.728 2.09c.384.864.576 1.827.576 2.889 0 1.875-.512 3.377-1.536 4.506C28.285 24.436 26.837 25 24.95 25c-1.232 0-2.304-.224-3.216-.672-.912-.465-1.624-1.104-2.136-1.917-.512-.83-.792-1.793-.84-2.888h3.288c.128.747.424 1.344.888 1.792.464.432 1.08.648 1.848.648.928 0 1.616-.29 2.064-.872.464-.597.696-1.386.696-2.365 0-.93-.24-1.651-.72-2.166-.48-.514-1.16-.772-2.04-.772-.64 0-1.184.15-1.632.448a2.496 2.496 0 0 0-.984 1.146h-3.288V7H29.99v3.087Z" fill="currentColor"/></svg>