<svg xmlns="http://www.w3.org/2000/svg" viewBox="0 0 32 32" fill="none"><path d="M27.143 14.286H4.857A.857.857 0 0 1 4 13.429v-1.715a.857.857 0 0 1 .857-.857h22.286a.857.857 0 0 1 .857.857v1.715a.857.857 0 0 1-.857.857ZM4.857 24.57h22.286a.857.857 0 0 1 .857.858v1.714a.857.857 0 0 1-.857.857H4.857A.857.857 0 0 1 4 27.143v-1.714a.857.857 0 0 1 .857-.858ZM4.687 4h14.054a.687.687 0 0 1 .688.687v2.054a.688.688 0 0 1-.688.688H4.687A.687.687 0 0 1 4 6.74V4.687A.687.687 0 0 1 4.687 4Zm0 13.714h14.054a.685.685 0 0 1 .688.688v2.053a.688.688 0 0 1-.688.688H4.687A.688.688 0 0 1 4 20.455v-2.053a.687.687 0 0 1 .687-.688Z" fill="currentColor"/></svg>