<svg viewBox="0 0 24 24" fill="none" xmlns="http://www.w3.org/2000/svg"><path fill-rule="evenodd" clip-rule="evenodd" d="M2.793 3.828A2.652 2.652 0 0 1 4.708 3h14.583c.718 0 1.407.298 1.915.828a2.89 2.89 0 0 1 .793 1.998v12.348a2.89 2.89 0 0 1-.793 1.998A2.652 2.652 0 0 1 19.29 21H4.708a2.652 2.652 0 0 1-1.915-.828A2.89 2.89 0 0 1 2 18.174V5.826c0-.75.285-1.468.793-1.998Zm.457 6.128v3.696h8.125V9.957H3.25Zm9.374 0v3.696h8.125V9.957h-8.124Zm8.125-1.304V5.826c0-.404-.153-.79-.427-1.076a1.428 1.428 0 0 0-1.031-.446H4.708c-.387 0-.757.16-1.03.446a1.556 1.556 0 0 0-.428 1.076v2.826h17.5Zm0 6.305h-8.124v4.738h6.666c.387 0 .758-.16 1.031-.445.274-.285.427-.672.427-1.076v-3.217Zm-9.374 4.738v-4.739H3.25v3.218c0 .404.154.79.427 1.076.274.285.644.446 1.031.446h6.667Z" fill="currentColor"/></svg>