<svg xmlns="http://www.w3.org/2000/svg" viewBox="0 0 32 32" fill="none"><path d="M27.143 10.857H4.857a.857.857 0 0 0-.857.857v1.715a.857.857 0 0 0 .857.857h22.286a.857.857 0 0 0 .857-.857v-1.715a.857.857 0 0 0-.857-.857Zm0 13.714H4.857A.857.857 0 0 0 4 25.43v1.714a.857.857 0 0 0 .857.857h22.286a.857.857 0 0 0 .857-.857v-1.714a.857.857 0 0 0-.857-.858ZM9.79 7.43H22.21a.647.647 0 0 0 .648-.649V4.648A.647.647 0 0 0 22.21 4H9.791a.648.648 0 0 0-.648.648V6.78a.648.648 0 0 0 .648.649ZM22.21 21.143a.647.647 0 0 0 .648-.648v-2.133a.647.647 0 0 0-.648-.648H9.791a.647.647 0 0 0-.648.648v2.133a.648.648 0 0 0 .648.648H22.21Z" fill="currentColor"/></svg>