<svg width="20" height="20" fill="none" xmlns="http://www.w3.org/2000/svg"><path d="M17.62 3.003a6 6 0 0 0-8.477 0l-7.266 7.266a4.286 4.286 0 0 0 0 6.054 4.267 4.267 0 0 0 3.027 1.252 4.269 4.269 0 0 0 3.028-1.252l6.66-6.66c.485-.485.752-1.13.752-1.816 0-.687-.267-1.332-.752-1.817a2.572 2.572 0 0 0-3.633 0l-4.355 4.356a.856.856 0 0 0 1.21 1.21l4.356-4.355a.857.857 0 0 1 1.211 1.211l-6.66 6.66a2.572 2.572 0 0 1-3.633 0 2.572 2.572 0 0 1 0-3.633l7.266-7.265a4.286 4.286 0 0 1 6.054 0 4.253 4.253 0 0 1 1.255 3.027 4.253 4.253 0 0 1-1.255 3.027l-7.265 7.266a.856.856 0 0 0 1.21 1.211l7.266-7.266a5.954 5.954 0 0 0 1.756-4.238 5.954 5.954 0 0 0-1.756-4.238Z" fill="#5C5E62"/></svg>