<svg xmlns="http://www.w3.org/2000/svg" fill="none" viewBox="0 0 24 24"><path fill="currentColor" d="M14.1157 20.5479C14.2225 21.2224 13.7615 21.8639 13.079 21.8858C11.6786 21.9308 10.2797 21.6778 8.97658 21.1379C7.29126 20.4398 5.83182 19.2894 4.75961 17.8136C3.68739 16.3378 3.04416 14.5942 2.90104 12.7757C2.75792 10.9572 3.12048 9.13446 3.94863 7.50912C4.77679 5.88377 6.03828 4.51909 7.59363 3.56597C9.14899 2.61285 10.9376 2.1084 12.7618 2.1084C14.586 2.1084 16.3746 2.61285 17.93 3.56597C19.1326 4.30296 20.1596 5.28599 20.9464 6.44535C21.3298 7.01037 21.0818 7.76042 20.4733 8.07042C19.8649 8.38044 19.128 8.1304 18.7214 7.58184C18.1577 6.8215 17.4515 6.1729 16.638 5.67439C15.4714 4.95955 14.13 4.58121 12.7618 4.58121C11.3937 4.58121 10.0522 4.95955 8.88567 5.67439C7.71915 6.38923 6.77304 7.41273 6.15193 8.63174C5.53081 9.85075 5.25889 11.2178 5.36623 12.5817C5.47357 13.9456 5.95599 15.2532 6.76016 16.3601C7.56432 17.467 8.65889 18.3298 9.92289 18.8534C10.8043 19.2185 11.7442 19.4086 12.6907 19.4177C13.3735 19.4243 14.0089 19.8735 14.1157 20.5479Z"/></svg>