<svg xmlns="http://www.w3.org/2000/svg" fill="none" viewBox="0 0 24 24"><path fill="#4294FF" d="M16.8752 1.5H0.375005C0.275548 1.5 0.180164 1.53951 0.109836 1.60984C0.0395094 1.68016 0 1.77555 0 1.87501L0 15.3752C0 15.5822 0.168002 15.7502 0.375005 15.7502H16.8752C16.9747 15.7502 17.0701 15.7107 17.1404 15.6404C17.2107 15.57 17.2502 15.4746 17.2502 15.3752V1.87501C17.2502 1.77555 17.2107 1.68016 17.1404 1.60984C17.0701 1.53951 16.9747 1.5 16.8752 1.5Z"/><path fill="#E6ECFF" d="M6.00007 1.5V6.37507C6.00007 6.47452 6.03958 6.56991 6.1099 6.64024C6.18023 6.71056 6.27561 6.75007 6.37507 6.75007H10.8751C10.9746 6.75007 11.07 6.71056 11.1403 6.64024C11.2106 6.56991 11.2501 6.47452 11.2501 6.37507V1.5H6.00007ZM3.75004 14.6252H1.50001C1.40055 14.6252 1.30516 14.5857 1.23484 14.5153C1.16451 14.445 1.125 14.3496 1.125 14.2502C1.125 14.1507 1.16451 14.0553 1.23484 13.985C1.30516 13.9147 1.40055 13.8752 1.50001 13.8752H3.75004C3.84949 13.8752 3.94488 13.9147 4.0152 13.985C4.08553 14.0553 4.12504 14.1507 4.12504 14.2502C4.12504 14.3496 4.08553 14.445 4.0152 14.5153C3.94488 14.5857 3.84949 14.6252 3.75004 14.6252ZM6.75008 13.1252H1.50001C1.40055 13.1252 1.30516 13.0857 1.23484 13.0153C1.16451 12.945 1.125 12.8496 1.125 12.7502C1.125 12.6507 1.16451 12.5553 1.23484 12.485C1.30516 12.4147 1.40055 12.3751 1.50001 12.3751H6.75008C6.84953 12.3751 6.94492 12.4147 7.01525 12.485C7.08557 12.5553 7.12508 12.6507 7.12508 12.7502C7.12508 12.8496 7.08557 12.945 7.01525 13.0153C6.94492 13.0857 6.84953 13.1252 6.75008 13.1252ZM23.8903 16.9852L17.1402 10.2351C17.07 10.1648 16.9746 10.1252 16.8752 10.1251H12.0001C11.9007 10.1251 11.8053 10.1646 11.735 10.235C11.6647 10.3053 11.6251 10.4007 11.6251 10.5001V15.3752C11.6251 15.4747 11.6651 15.5702 11.7351 15.6402L18.4852 22.3903C18.5556 22.4605 18.6509 22.5 18.7502 22.5C18.8496 22.5 18.9449 22.4605 19.0152 22.3903L23.8903 17.5152C23.9605 17.4449 24 17.3496 24 17.2502C24 17.1508 23.9605 17.0555 23.8903 16.9852Z"/><path fill="#2946ED" d="M17.3232 16.0005C17.0832 16.324 17.0852 16.6005 17.3282 16.829C17.5602 17.048 17.8627 17.0535 18.2352 16.8455C18.2452 16.84 18.2502 16.832 18.2502 16.8215C18.2479 16.8099 18.2421 16.7993 18.2337 16.791L17.3852 15.991C17.3612 15.9685 17.3402 15.9715 17.3232 16.001V16.0005ZM19.8437 16.911C19.7132 16.788 19.5752 16.723 19.4297 16.717C19.2817 16.7085 19.1042 16.76 18.8972 16.8725C18.8722 16.889 18.8697 16.9075 18.8912 16.9275L19.8232 17.8065C19.8472 17.829 19.8682 17.826 19.8852 17.7965C20.1192 17.453 20.1052 17.1575 19.8437 16.911ZM18.5112 17.1135C17.9022 17.471 17.4132 17.4765 17.0452 17.1295C16.8527 16.948 16.7562 16.7385 16.7542 16.4995C16.7547 16.2585 16.8567 16.0095 17.0592 15.7515C17.0817 15.7275 17.0812 15.704 17.0572 15.6815L16.8132 15.4515C16.7964 15.4364 16.783 15.4181 16.7736 15.3976C16.7642 15.3771 16.7591 15.355 16.7586 15.3325C16.7572 15.3087 16.7606 15.285 16.7686 15.2626C16.7767 15.2402 16.7893 15.2198 16.8057 15.2025C16.8212 15.1856 16.8403 15.1724 16.8616 15.1638C16.8828 15.1551 16.9057 15.1513 16.9287 15.1525C16.9515 15.1499 16.9746 15.1523 16.9964 15.1597C17.0182 15.167 17.0381 15.1791 17.0547 15.195L17.2947 15.4215C17.3187 15.4445 17.3417 15.4435 17.3647 15.4195C17.5542 15.2455 17.7442 15.0945 17.9347 14.967C17.9832 14.9369 18.0405 14.9242 18.0972 14.931C18.1542 14.935 18.2042 14.9565 18.2472 14.997C18.2817 15.0295 18.2957 15.0705 18.2897 15.12C18.2873 15.1433 18.2793 15.1657 18.2662 15.1852C18.2531 15.2046 18.2354 15.2205 18.2147 15.2315C18.0036 15.3547 17.807 15.5013 17.6287 15.6685C17.6062 15.6925 17.6052 15.715 17.6267 15.735L18.5392 16.595C18.5632 16.618 18.5892 16.62 18.6167 16.6005C18.9587 16.3935 19.2472 16.2955 19.4837 16.307C19.7202 16.318 19.9372 16.417 20.1342 16.603C20.3427 16.799 20.4477 17.0215 20.4497 17.2705C20.4517 17.5195 20.3517 17.778 20.1497 18.0455C20.1322 18.075 20.1342 18.0995 20.1557 18.1195L20.3997 18.3495C20.4347 18.3825 20.4512 18.4235 20.4497 18.473C20.4522 18.4958 20.4496 18.5189 20.4422 18.5405C20.4347 18.5622 20.4226 18.582 20.4067 18.5985C20.3905 18.6158 20.3708 18.6295 20.3491 18.6389C20.3273 18.6482 20.3039 18.6531 20.2802 18.653C20.2577 18.6539 20.2353 18.6502 20.2143 18.6421C20.1934 18.634 20.1743 18.6218 20.1582 18.606L19.9182 18.3795C19.8942 18.357 19.8717 18.356 19.8517 18.3775C19.6472 18.5675 19.4367 18.7215 19.2197 18.8395C19.1668 18.8696 19.1053 18.8811 19.0452 18.872C18.9857 18.8611 18.9308 18.8329 18.8872 18.791C18.8706 18.7764 18.8583 18.7576 18.8515 18.7366C18.8448 18.7155 18.8438 18.6931 18.8487 18.6715C18.8522 18.6496 18.8614 18.6289 18.8752 18.6115C18.889 18.594 18.9071 18.5805 18.9277 18.572C19.17 18.4604 19.3928 18.3107 19.5877 18.1285C19.6077 18.107 19.6077 18.0865 19.5857 18.0665L18.5857 17.123C18.5617 17.1005 18.5367 17.097 18.5112 17.1135Z"/><path fill="#376CFB" d="M15.0003 15C15.3981 15 15.7796 14.842 16.0609 14.5607C16.3422 14.2794 16.5003 13.8979 16.5003 13.5C16.5003 13.1022 16.3422 12.7207 16.0609 12.4393C15.7796 12.158 15.3981 12 15.0003 12C14.6024 12 14.2209 12.158 13.9396 12.4393C13.6583 12.7207 13.5002 13.1022 13.5002 13.5C13.5002 13.8979 13.6583 14.2794 13.9396 14.5607C14.2209 14.842 14.6024 15 15.0003 15Z"/><path fill="#2946ED" d="M15.0004 13.875C14.8219 13.875 10.6128 13.834 9.03279 10.2774C9.01153 10.2322 8.9995 10.1833 8.9974 10.1334C8.9953 10.0836 9.00318 10.0338 9.02058 9.987C9.03797 9.94021 9.06453 9.89737 9.09869 9.86099C9.13286 9.8246 9.17394 9.7954 9.21954 9.7751C9.26514 9.7548 9.31433 9.7438 9.36423 9.74276C9.41413 9.74171 9.46373 9.75064 9.51014 9.76902C9.55655 9.78739 9.59882 9.81485 9.63447 9.84977C9.67013 9.8847 9.69846 9.92639 9.7178 9.9724C11.1003 13.0794 14.9634 13.1249 15.0004 13.1249C15.0998 13.1249 15.1952 13.1645 15.2655 13.2348C15.3359 13.3051 15.3754 13.4005 15.3754 13.4999C15.3754 13.5994 15.3359 13.6948 15.2655 13.7651C15.1952 13.8354 15.0998 13.875 15.0004 13.875Z"/></svg>