<svg xmlns="http://www.w3.org/2000/svg" fill="none" viewBox="0 0 24 24"><path fill="currentColor" d="M19.6872 13.9705H10.092C9.94796 13.9705 9.78716 13.8649 9.72956 13.7353L5.32796 3.66733C5.27036 3.53773 5.10956 3.43213 4.96556 3.43213H1.75676C1.61276 3.43213 1.49756 3.54733 1.49756 3.69133V4.49293C1.49756 4.63693 1.61276 4.75213 1.75676 4.75213H4.10396C4.24796 4.75213 4.40876 4.85773 4.46636 4.98733L8.87036 15.0553C8.92796 15.1849 9.08876 15.2905 9.23276 15.2905H19.6872C19.8312 15.2905 19.9464 15.1753 19.9464 15.0313V14.2297C19.944 14.0881 19.8288 13.9705 19.6872 13.9705ZM11.3808 16.6081C10.2888 16.6081 9.40556 17.4913 9.40556 18.5833C9.40556 19.6753 10.2912 20.5585 11.3808 20.5585C12.4704 20.5585 13.356 19.6753 13.356 18.5833C13.356 17.4913 12.4704 16.6081 11.3808 16.6081ZM17.9688 16.6081C16.8768 16.6081 15.9936 17.4913 15.9936 18.5833C15.9936 19.6753 16.8792 20.5585 17.9688 20.5585C19.0584 20.5585 19.944 19.6753 19.944 18.5833C19.944 17.4913 19.0584 16.6081 17.9688 16.6081ZM22.3224 6.06733H8.34476C8.20076 6.06733 8.13116 6.17533 8.18396 6.30733L8.51996 7.14733C8.57276 7.27933 8.73116 7.38733 8.87276 7.38733H21.792C21.936 7.38733 22.092 7.27933 22.1448 7.14733L22.4808 6.30733C22.536 6.17293 22.4616 6.06733 22.3224 6.06733ZM20.2128 11.3353H10.452C10.308 11.3353 10.2384 11.4433 10.2912 11.5753L10.6272 12.4153C10.68 12.5473 10.8384 12.6553 10.98 12.6553H19.6872C19.8312 12.6553 19.9872 12.5473 20.04 12.4153L20.376 11.5753C20.4264 11.4433 20.3568 11.3353 20.2128 11.3353ZM21.2664 8.70013H9.39836C9.25436 8.70013 9.18476 8.80813 9.23756 8.94013L9.57356 9.78013C9.62636 9.91213 9.78476 10.0201 9.92636 10.0201H20.7408C20.8848 10.0201 21.0408 9.91213 21.0936 9.78013L21.4296 8.94013C21.4824 8.80813 21.4104 8.70013 21.2664 8.70013Z"/></svg>