<svg xmlns="http://www.w3.org/2000/svg" fill="none" viewBox="0 0 24 24"><path stroke="currentColor" stroke-linecap="round" stroke-linejoin="round" d="M1.7791 9.72869H22.2209M6.32172 15.407H7.45738M12 15.407H13.1357M5.18607 19.9496H18.8139C19.7175 19.9496 20.584 19.5906 21.223 18.9517C21.8619 18.3127 22.2209 17.4461 22.2209 16.5426V7.45738C22.2209 6.55379 21.8619 5.68723 21.223 5.04829C20.584 4.40936 19.7175 4.05041 18.8139 4.05041H5.18607C4.28248 4.05041 3.41591 4.40936 2.77698 5.04829C2.13805 5.68723 1.7791 6.55379 1.7791 7.45738V16.5426C1.7791 17.4461 2.13805 18.3127 2.77698 18.9517C3.41591 19.5906 4.28248 19.9496 5.18607 19.9496Z"/></svg>