<svg xmlns="http://www.w3.org/2000/svg" fill="none" viewBox="0 0 25 25"><path fill="currentColor" d="M12.7399 1.8125C6.93671 1.8125 2.23511 6.5141 2.23511 12.3077C2.23511 18.1109 6.93671 22.8125 12.7399 22.8125C18.5335 22.8125 23.2351 18.1109 23.2351 12.3077C23.2351 6.5141 18.5335 1.8125 12.7399 1.8125ZM19.9783 13.0085C19.9615 13.2245 19.9255 13.4669 19.8655 13.7357H14.1607V19.4429C13.8919 19.5029 13.6423 19.5461 13.4071 19.5653C13.1743 19.5821 12.9319 19.5917 12.6799 19.5917C12.4639 19.5917 12.2551 19.5821 12.0391 19.5653C11.8231 19.5485 11.5807 19.5053 11.3119 19.4429V13.7381H5.61191C5.55191 13.4693 5.50871 13.2173 5.48951 12.9845C5.47271 12.7517 5.46311 12.5093 5.46311 12.2573C5.46311 12.0413 5.47271 11.8325 5.48951 11.6165C5.50631 11.4005 5.54951 11.1581 5.61191 10.8893H11.3095V5.1893C11.5783 5.1293 11.8279 5.0933 12.0631 5.0765C12.2959 5.0501 12.5383 5.0429 12.7903 5.0429C13.0063 5.0429 13.2223 5.0525 13.4311 5.0765C13.6471 5.0933 13.8895 5.1293 14.1583 5.1893V10.8869H19.8655C19.9255 11.1557 19.9615 11.4053 19.9783 11.6405C20.0047 11.8733 20.0119 12.1157 20.0119 12.3677C20.0143 12.5861 20.0047 12.8021 19.9783 13.0085Z"/></svg>