<svg xmlns="http://www.w3.org/2000/svg" fill="none" viewBox="0 0 24 24"><path fill="currentColor" d="M12 1.5C6.204 1.5 1.5 6.204 1.5 12C1.5 17.796 6.204 22.5 12 22.5C17.8032 22.5 22.5 17.796 22.5 12C22.5 6.204 17.8032 1.5 12 1.5ZM13.572 16.9776C13.572 17.8584 12.9216 18.5496 12 18.5496C11.0784 18.5496 10.4376 17.8608 10.4376 16.9776V16.9368C10.4376 16.056 11.0784 15.3744 12 15.3744C12.9216 15.3744 13.572 16.056 13.572 16.9368V16.9776ZM12.8496 13.3464C12.7944 13.8432 12.4656 14.1552 12 14.1552C11.544 14.1552 11.2056 13.8432 11.1504 13.3464L10.356 6.4128C10.308 5.8752 10.596 5.4504 11.0928 5.4504H12.9048C13.4016 5.4504 13.6992 5.8752 13.6416 6.4128L12.8496 13.3464Z"/></svg>