<svg xmlns="http://www.w3.org/2000/svg" fill="none" viewBox="0 0 24 24"><path fill="currentColor" d="M14.5351 21.0455L6.58508 13.0955C6.28102 12.7914 6.13215 12.3955 6.13215 11.9996C6.13215 11.6037 6.28418 11.2046 6.58508 10.9037L14.5351 2.95372C15.14 2.34876 16.1219 2.34876 16.73 2.95372L17.4142 3.63786C18.0191 4.24282 18.0191 5.22469 17.4142 5.83282L12.3401 10.9069C12.036 11.2109 11.8872 11.6069 11.8872 12.0028C11.8872 12.3987 12.0392 12.7978 12.3401 13.0987L17.4142 18.1727C18.0191 18.7777 18.0191 19.7596 17.4142 20.3677L16.73 21.0518C16.1219 21.6504 15.14 21.6504 14.5351 21.0455Z"/></svg>