<svg xmlns="http://www.w3.org/2000/svg" fill="none" viewBox="0 0 32 32"><path fill="currentColor" fill-rule="evenodd" d="M14.729 27.134a1.612 1.612 0 0 0-.587-.226c-5.08-.88-9.582-5.12-9.582-11.341 0-2.384 1.07-4.346 2.547-6.006.99-1.114 2.102-2.032 3.128-2.822v2.93a1.567 1.567 0 0 0 3.133 0v-6.4a1.567 1.567 0 0 0-1.566-1.567h-6.4a1.567 1.567 0 0 0 0 3.133h2.041c-.895.728-1.864 1.59-2.748 2.585-1.79 2.014-3.358 4.704-3.358 8.147 0 7.989 5.837 13.406 12.255 14.517a1.613 1.613 0 0 0 1.137-2.95Zm9.645.029c.894-.728 1.863-1.59 2.748-2.585 1.789-2.016 3.358-4.704 3.358-8.147 0-7.901-5.712-13.287-12.046-14.479a1.611 1.611 0 1 0-.594 3.167c5.013.945 9.417 5.159 9.417 11.312 0 2.386-1.07 4.346-2.547 6.003v.002c-.988 1.115-2.102 2.032-3.128 2.824v-2.93a1.567 1.567 0 1 0-3.134 0v6.4a1.567 1.567 0 0 0 1.567 1.566h6.4a1.567 1.567 0 1 0 0-3.133h-2.041Zm-3.243-.931.45-.342-.45.342Z" clip-rule="evenodd"/></svg>