<svg xmlns="http://www.w3.org/2000/svg" viewBox="0 0 32 32" fill="none"><path d="M4.857 14.286h22.286a.857.857 0 0 0 .857-.857v-1.715a.857.857 0 0 0-.857-.857H4.857a.857.857 0 0 0-.857.857v1.715a.857.857 0 0 0 .857.857ZM27.143 24.57H4.857A.857.857 0 0 0 4 25.43v1.714a.857.857 0 0 0 .857.857h22.286a.857.857 0 0 0 .857-.857v-1.714a.857.857 0 0 0-.857-.858ZM27.313 4H13.259a.687.687 0 0 0-.688.687v2.054a.688.688 0 0 0 .688.688h14.054A.687.687 0 0 0 28 6.74V4.687A.687.687 0 0 0 27.313 4Zm0 13.714H13.259a.685.685 0 0 0-.688.688v2.053a.688.688 0 0 0 .688.688h14.054a.688.688 0 0 0 .687-.688v-2.053a.686.686 0 0 0-.687-.688Z" fill="currentColor"/></svg>