<svg xmlns="http://www.w3.org/2000/svg" fill="none" viewBox="0 0 24 24"><path stroke="currentColor" stroke-linecap="round" stroke-linejoin="round" d="M15.375 17.625C15.375 17.3295 15.4332 17.0369 15.5463 16.764C15.6593 16.491 15.8251 16.2429 16.034 16.034C16.2429 15.8251 16.491 15.6593 16.764 15.5463C17.0369 15.4332 17.3295 15.375 17.625 15.375C17.9205 15.375 18.2131 15.4332 18.486 15.5463C18.759 15.6593 19.0071 15.8251 19.216 16.034C19.4249 16.2429 19.5907 16.491 19.7037 16.764C19.8168 17.0369 19.875 17.3295 19.875 17.625M15.375 17.625H14.25C13.9516 17.625 13.6655 17.5065 13.4545 17.2955C13.2435 17.0845 13.125 16.7984 13.125 16.5M15.375 17.625L13.125 16.5M15.375 17.625C15.375 17.9205 15.4332 18.2131 15.5463 18.486C15.6593 18.759 15.8251 19.0071 16.034 19.216C16.2429 19.4249 16.491 19.5907 16.764 19.7037C17.0369 19.8168 17.3295 19.875 17.625 19.875C17.9205 19.875 18.2131 19.8168 18.486 19.7037C18.759 19.5907 19.0071 19.4249 19.216 19.216C19.4249 19.0071 19.5907 18.759 19.7037 18.486C19.8168 18.2131 19.875 17.9205 19.875 17.625M15.375 17.625H19.875M19.875 17.625H21C21.2984 17.625 21.5845 17.5065 21.7955 17.2955C22.0065 17.0845 22.125 16.7984 22.125 16.5V11.34C22.125 11.043 22.005 10.755 21.795 10.545L17.955 6.705C17.745 6.495 17.457 6.375 17.16 6.375H14.25C13.9516 6.375 13.6655 6.49353 13.4545 6.7045C13.2435 6.91548 13.125 7.20163 13.125 7.5V16.5M19.875 17.625L13.125 16.5M13.125 16.5V5.25C13.125 4.95163 13.0065 4.66548 12.7955 4.4545C12.5845 4.24353 12.2984 4.125 12 4.125H3C2.70163 4.125 2.41548 4.24353 2.2045 4.4545C1.99353 4.66548 1.875 4.95163 1.875 5.25V16.5C1.875 16.7984 1.99353 17.0845 2.2045 17.2955C2.41548 17.5065 2.70163 17.625 3 17.625H4.125M13.125 16.5L4.125 17.625M13.125 16.5C13.125 16.7984 13.0065 17.0845 12.7955 17.2955C12.5845 17.5065 12.2984 17.625 12 17.625H8.625M13.125 16.5L8.625 17.625M4.125 17.625C4.125 18.2217 4.36205 18.794 4.78401 19.216C5.20597 19.6379 5.77826 19.875 6.375 19.875C6.97174 19.875 7.54403 19.6379 7.96599 19.216C8.38795 18.794 8.625 18.2217 8.625 17.625M4.125 17.625H8.625M4.125 17.625C4.125 17.0283 4.36205 16.456 4.78401 16.034C5.20597 15.6121 5.77826 15.375 6.375 15.375C6.97174 15.375 7.54403 15.6121 7.96599 16.034C8.38795 16.456 8.625 17.0283 8.625 17.625"/></svg>