<svg xmlns="http://www.w3.org/2000/svg" fill="none" viewBox="0 0 16 18"><path fill="currentColor" d="M7.079 6.404v7.27a.418.418 0 0 1-.135.302.364.364 0 0 1-.27.1h-.807a.492.492 0 0 1-.303-.1.492.492 0 0 1-.1-.303v-7.27c0-.111.033-.201.1-.268.09-.09.191-.135.303-.135h.808a.32.32 0 0 1 .27.135.32.32 0 0 1 .134.269ZM10.444 6h-.808a.418.418 0 0 0-.302.135.364.364 0 0 0-.101.269v7.27c0 .111.033.212.1.302.09.067.191.1.303.1h.808a.363.363 0 0 0 .27-.1c.09-.09.134-.19.134-.303v-7.27a.32.32 0 0 0-.135-.268.32.32 0 0 0-.269-.135Zm4.442-3.23c.225 0 .416.078.573.235a.779.779 0 0 1 .235.572v.404a.419.419 0 0 1-.135.303.364.364 0 0 1-.269.1h-.673v11.308c0 .449-.157.83-.471 1.145a1.558 1.558 0 0 1-1.144.47H3.309c-.448 0-.83-.156-1.144-.47a1.558 1.558 0 0 1-.47-1.145V4.385H1.02a.492.492 0 0 1-.303-.101.492.492 0 0 1-.1-.303v-.404c0-.224.078-.415.235-.572a.779.779 0 0 1 .572-.236h2.49L5.06.851A1.643 1.643 0 0 1 6.473.077h3.365a1.643 1.643 0 0 1 1.413.774l1.145 1.918h2.49Zm-9.086 0h4.711l-.605-.977c-.045-.067-.101-.1-.169-.1H6.574c-.067 0-.123.033-.168.1L5.8 2.77Zm7.202 1.615H3.309V15.49c0 .045.023.09.068.135.045.045.09.067.134.067H12.8c.045 0 .09-.022.134-.067.045-.045.068-.09.068-.135V4.385Z"/></svg>