<svg xmlns="http://www.w3.org/2000/svg" width="32" height="32" fill="none" viewBox="0 0 32 32"><path fill="currentColor" d="M25.191 9.55h-.71V6.81c0-2.1-1.71-3.809-3.81-3.809h-9.343A3.813 3.813 0 0 0 7.52 6.809V9.55h-.711A3.813 3.813 0 0 0 3 13.359v6.094c0 2.1 1.709 3.809 3.809 3.809h.71v3.453A2.288 2.288 0 0 0 9.806 29h12.39a2.288 2.288 0 0 0 2.285-2.285v-3.453h.711c2.1 0 3.809-1.709 3.809-3.809V13.36c0-2.1-1.709-3.808-3.809-3.808ZM9.043 6.81a2.288 2.288 0 0 1 2.285-2.286h9.344a2.288 2.288 0 0 1 2.285 2.286V9.55H9.043V6.809Zm13.914 19.906c0 .42-.342.762-.762.762H9.805a.763.763 0 0 1-.762-.762v-7.516h13.914v7.516Zm4.52-7.262a2.288 2.288 0 0 1-2.286 2.285h-.71V19.2h.456a.762.762 0 1 0 0-1.523H7.063a.762.762 0 1 0 0 1.523h.458v2.54h-.711a2.288 2.288 0 0 1-2.286-2.286V13.36a2.288 2.288 0 0 1 2.286-2.285H25.19a2.288 2.288 0 0 1 2.286 2.285v6.094Z"/><path fill="currentColor" d="M18.031 20.926H13.97a.762.762 0 1 0 0 1.523h4.062a.762.762 0 1 0 0-1.523ZM18.031 24.176H13.97a.762.762 0 1 0 0 1.523h4.062a.762.762 0 1 0 0-1.523ZM9.5 12.8H7.062a.762.762 0 1 0 0 1.524H9.5a.762.762 0 1 0 0-1.523Z"/></svg>