<svg xmlns="http://www.w3.org/2000/svg" width="32" height="32" viewBox="0 0 32 32" fill="none">
  <circle cx="16" cy="16" r="13" stroke="currentColor" stroke-width="2"/>
  <path d="M17.7208 9.70707C17.7208 10.1598 17.541 10.594 17.2208 10.9142C16.9007 11.2343 16.4665 11.4141 16.0138 11.4141C15.561 11.4141 15.1268 11.2343 14.8067 10.9142C14.4865 10.594 14.3067 10.1598 14.3067 9.70707C14.3067 9.25433 14.4865 8.82013 14.8067 8.49999C15.1268 8.17985 15.561 8 16.0138 8C16.4665 8 16.9007 8.17985 17.2208 8.49999C17.541 8.82013 17.7208 9.25433 17.7208 9.70707ZM12.5996 14.1086C12.5996 13.769 12.7345 13.4434 12.9746 13.2033C13.2147 12.9632 13.5404 12.8283 13.8799 12.8283H16.4405C16.7801 12.8283 17.1057 12.9632 17.3458 13.2033C17.5859 13.4434 17.7208 13.769 17.7208 14.1086V21.3636H19.0011C19.3407 21.3636 19.6663 21.4985 19.9064 21.7386C20.1465 21.9787 20.2814 22.3044 20.2814 22.6439C20.2814 22.9835 20.1465 23.3091 19.9064 23.5493C19.6663 23.7894 19.3407 23.9242 19.0011 23.9242H13.8799C13.5404 23.9242 13.2147 23.7894 12.9746 23.5493C12.7345 23.3091 12.5996 22.9835 12.5996 22.6439C12.5996 22.3044 12.7345 21.9787 12.9746 21.7386C13.2147 21.4985 13.5404 21.3636 13.8799 21.3636H15.1602V15.3889H13.8799C13.5404 15.3889 13.2147 15.254 12.9746 15.0139C12.7345 14.7738 12.5996 14.4481 12.5996 14.1086Z" fill="#5C5E62"/>
</svg>