<svg xmlns="http://www.w3.org/2000/svg" fill="none" viewBox="0 0 24 24"><path fill="currentColor" fill-rule="evenodd" d="M6.54067 4.59615C6.54067 4.23913 6.6825 3.89673 6.93495 3.64428C7.18741 3.39183 7.52981 3.25 7.88683 3.25H21.3484C21.7054 3.25 22.0478 3.39183 22.3002 3.64428C22.5527 3.89673 22.6945 4.23913 22.6945 4.59615C22.6945 4.95318 22.5527 5.29558 22.3002 5.54803C22.0478 5.80048 21.7054 5.94231 21.3484 5.94231H7.88683C7.52981 5.94231 7.18741 5.80048 6.93495 5.54803C6.6825 5.29558 6.54067 4.95318 6.54067 4.59615ZM6.54067 12C6.54067 11.643 6.6825 11.3006 6.93495 11.0481C7.18741 10.7957 7.52981 10.6538 7.88683 10.6538H21.3484C21.7054 10.6538 22.0478 10.7957 22.3002 11.0481C22.5527 11.3006 22.6945 11.643 22.6945 12C22.6945 12.357 22.5527 12.6994 22.3002 12.9519C22.0478 13.2043 21.7054 13.3462 21.3484 13.3462H7.88683C7.52981 13.3462 7.18741 13.2043 6.93495 12.9519C6.6825 12.6994 6.54067 12.357 6.54067 12ZM6.54067 19.4038C6.54067 19.0468 6.6825 18.7044 6.93495 18.452C7.18741 18.1995 7.52981 18.0577 7.88683 18.0577H21.3484C21.7054 18.0577 22.0478 18.1995 22.3002 18.452C22.5527 18.7044 22.6945 19.0468 22.6945 19.4038C22.6945 19.7609 22.5527 20.1033 22.3002 20.3557C22.0478 20.6082 21.7054 20.75 21.3484 20.75H7.88683C7.52981 20.75 7.18741 20.6082 6.93495 20.3557C6.6825 20.1033 6.54067 19.7609 6.54067 19.4038ZM1.30548 4.59615C1.30548 3.85308 1.90721 3.25 2.64894 3.25H2.65433C3.39606 3.25 3.99779 3.85308 3.99779 4.59615C3.99779 5.33923 3.39606 5.94231 2.65433 5.94231H2.64894C2.47234 5.94213 2.2975 5.90717 2.13441 5.83943C1.97132 5.77168 1.82317 5.67247 1.69841 5.54747C1.57366 5.42247 1.47475 5.27412 1.40733 5.11089C1.33991 4.94766 1.3053 4.77276 1.30548 4.59615ZM1.30548 12C1.30548 11.2569 1.90721 10.6538 2.64894 10.6538H2.65433C3.39606 10.6538 3.99779 11.2569 3.99779 12C3.99779 12.7431 3.39606 13.3462 2.65433 13.3462H2.64894C2.47234 13.346 2.2975 13.311 2.13441 13.2433C1.97132 13.1755 1.82317 13.0763 1.69841 12.9513C1.57366 12.8263 1.47475 12.678 1.40733 12.5147C1.33991 12.3515 1.3053 12.1766 1.30548 12ZM1.30548 19.4038C1.30548 18.6608 1.90721 18.0577 2.64894 18.0577H2.65433C3.39606 18.0577 3.99779 18.6608 3.99779 19.4038C3.99779 20.1469 3.39606 20.75 2.65433 20.75H2.64894C2.47234 20.7498 2.2975 20.7149 2.13441 20.6471C1.97132 20.5794 1.82317 20.4802 1.69841 20.3552C1.57366 20.2302 1.47475 20.0818 1.40733 19.9186C1.33991 19.7554 1.3053 19.5804 1.30548 19.4038Z" clip-rule="evenodd"/></svg>