<svg width="20" height="20" fill="none" xmlns="http://www.w3.org/2000/svg"><path d="M6.11 4.86a5.5 5.5 0 0 1 9.39 3.89c0 2.7-1.418 4.866-2.912 6.395A14.944 14.944 0 0 1 10 17.25a14.941 14.941 0 0 1-2.588-2.104C5.918 13.615 4.5 11.45 4.5 8.75a5.5 5.5 0 0 1 1.61-3.89Zm3.53 13.922a.751.751 0 0 0 .72 0l-.36-.657-.36.657Zm0 0 .36-.657c.36.658.361.657.361.657h.002l.006-.004.017-.01.06-.034a14.335 14.335 0 0 0 .963-.624 16.448 16.448 0 0 0 2.252-1.917C15.293 14.523 17 12.001 17 8.75a7 7 0 1 0-14 0c0 3.25 1.707 5.773 3.338 7.443a16.451 16.451 0 0 0 3 2.412 9.488 9.488 0 0 0 .276.163l.017.01.006.003.002.002Zm-.877-11.27a1.75 1.75 0 1 1 2.474 2.475 1.75 1.75 0 0 1-2.474-2.474ZM10 5.5a3.25 3.25 0 1 0 0 6.5 3.25 3.25 0 0 0 0-6.5Z" fill="currentColor"/></svg>