<svg xmlns="http://www.w3.org/2000/svg" fill="none" viewBox="0 0 24 24"><path fill="currentColor" fill-rule="evenodd" d="M20.0282 3.23245C19.8491 2.63064 19.5284 2.3691 18.963 2.36857C14.3176 2.36804 9.67222 2.36804 5.02683 2.36804C4.4768 2.36804 4.13759 2.64755 3.9738 3.2483C3.81232 3.84198 3.65407 4.43691 3.49582 5.03189L3.49579 5.03198L3.49577 5.03205L3.49576 5.03211C3.42361 5.30335 3.35146 5.5746 3.279 5.84574L3.27889 5.84615C3.23613 6.00611 3.19337 6.16607 3.15061 6.32708C3.08086 6.58757 3.25417 6.84964 3.49563 6.84964H20.5872C20.8329 6.84964 21.0062 6.57964 20.9296 6.31705L20.0282 3.23139V3.23245ZM6.9998 21.6179H5.22449L4.99496 21.618C4.68878 21.6182 4.3824 21.6183 4.07636 21.6158C3.41907 21.6105 3.00589 21.1529 3.00536 20.4148C3.00344 18.0555 3.00375 15.6963 3.00407 13.3368V13.3367V13.3366V13.3365L3.0043 10.6818V10.3627C2.89456 10.3627 2.78665 10.3639 2.68005 10.3651C2.44434 10.3678 2.21499 10.3704 1.98614 10.3595C1.54654 10.3384 1.22847 10.0921 1.07154 9.62718C0.921485 9.1823 1.01131 8.77599 1.30508 8.43783C1.5122 8.20007 1.77321 8.10972 2.06962 8.10972C5.36825 8.11177 8.66687 8.11159 11.9657 8.11141H11.9658H11.9659H11.9659L14.7937 8.1113C17.1761 8.1113 19.5585 8.1113 21.9404 8.11236C22.5459 8.11236 22.9913 8.58049 22.9998 9.22193C23.0088 9.86653 22.5549 10.3579 21.943 10.3643C21.7427 10.3663 21.5423 10.3657 21.333 10.365H21.3329C21.2249 10.3646 21.1145 10.3643 21.0004 10.3643V10.6892C21.0004 13.9069 21.0004 17.1252 20.9994 20.343C20.9994 21.173 20.6084 21.6137 19.8745 21.6153C19.2225 21.6171 18.5704 21.6166 17.91 21.6162C17.6141 21.616 17.3166 21.6158 17.0166 21.6158C17.0157 21.5939 17.0147 21.5725 17.0136 21.5515L17.0117 21.512L17.0117 21.5118C17.0084 21.4474 17.0053 21.3866 17.0049 21.3257C17.0039 18.8641 17.0033 16.4019 17.0033 13.9402C17.0033 13.0425 16.6198 12.6082 15.8288 12.6088C13.9093 12.6099 11.9898 12.6102 10.0703 12.6105H10.0642L8.14266 12.6109C7.39555 12.6109 7.00033 13.0536 6.9998 13.8958C6.99927 16.3665 6.99875 18.8371 6.99875 21.3078V21.6174L6.9998 21.6179ZM14.2699 16.8368H9.63773C9.24304 16.8368 8.95033 16.4791 8.93342 16.0585C8.91651 15.638 9.26946 15.2803 9.63773 15.2803H14.2699C14.6646 15.2803 14.9573 15.638 14.9742 16.0585C14.9911 16.4791 14.6382 16.8368 14.2699 16.8368ZM9.63773 19.2487H14.2699C14.6382 19.2487 14.9911 18.8841 14.9742 18.4562C14.9573 18.0282 14.6646 17.6636 14.2699 17.6636H9.63773C9.26946 17.6636 8.91651 18.0282 8.93342 18.4562C8.95033 18.8841 9.24304 19.2487 9.63773 19.2487ZM14.2699 21.6321H9.63773C9.24304 21.6321 8.95033 21.2675 8.93342 20.8395C8.91651 20.4115 9.26946 20.047 9.63773 20.047H14.2699C14.6646 20.047 14.9573 20.4115 14.9742 20.8395C14.9911 21.2675 14.6382 21.6321 14.2699 21.6321Z" clip-rule="evenodd"/></svg>