<svg width="24" height="24" fill="none" xmlns="http://www.w3.org/2000/svg"><path d="M9.417 16.643h-.024v5.834h-4.06a1.727 1.727 0 0 1-1.726-1.727v-7.56H21.06v7.56c0 .954-.773 1.727-1.727 1.727h-4.06v-5.834H9.417Zm12.095-9.002c.308.757-.012 1.501-.088 1.677a1.16 1.16 0 0 0-.012.029l-.076.13a2.96 2.96 0 0 1-.705.785l-.01.008a2.514 2.514 0 0 1-1.445.54h-.097c-.898 0-1.7-.44-2.224-1.127l-.018-.024-.02.024c-.522.687-1.325 1.127-2.223 1.127-.741.002-1.457-.317-2.001-.893l-.22-.234.001-.001-.009-.004-.003-.001-.01-.005-.009.005-.003.001-.001-.003-.008.01c-.523.685-1.325 1.124-2.222 1.124-.742.002-1.457-.317-2.001-.893a3.124 3.124 0 0 1-.224-.264l-.018-.025-.019.025c-.07.093-.144.181-.223.264-.544.576-1.26.895-2 .893h-.096a2.602 2.602 0 0 1-1.377-.462v-.002l-.01-.007a2.725 2.725 0 0 1-.365-.298l-.015-.015-.205-.227-.203-.281a.368.368 0 0 1-.011-.018 1.52 1.52 0 0 1-.062-.104l-.016-.028v-.003l-.004-.007a1.29 1.29 0 0 1-.061-.14 2.615 2.615 0 0 1-.12-.394c-.071-.326-.099-.757.074-1.182l1.815-4.713c.136-.356.237-.62.332-.82.095-.198.183-.327.29-.412.108-.085.237-.129.418-.15a6.66 6.66 0 0 1 .725-.023h11.2c.312 0 .544 0 .725.022.181.022.31.066.417.15.108.086.195.215.29.414.095.198.196.463.331.818l1.816 4.714ZM5.527 10.833h.096l-1.496-.473c.424.292.906.455 1.4.473Z" fill="currentColor" stroke="#36F" stroke-width=".047"/></svg>