<svg viewBox="0 0 32 32" fill="none" xmlns="http://www.w3.org/2000/svg"><path fill-rule="evenodd" clip-rule="evenodd" d="M9.188 5.322c0-.48.388-.867.867-.867H29.13c.48 0 .868.388.868.867v1.734a.867.867 0 0 1-.868.867H10.055a.867.867 0 0 1-.867-.867V5.322ZM9.188 14.86c0-.479.388-.867.867-.867H29.13c.48 0 .868.388.868.867v1.735a.867.867 0 0 1-.868.867H10.055a.867.867 0 0 1-.867-.867V14.86ZM9.188 24.399c0-.48.388-.867.867-.867H29.13c.48 0 .868.388.868.867v1.734a.867.867 0 0 1-.868.867H10.055a.867.867 0 0 1-.867-.867v-1.734ZM2.445 6.189c0-.958.775-1.734 1.73-1.734h.009c.955 0 1.73.776 1.73 1.734s-.775 1.734-1.73 1.734h-.009c-.955 0-1.73-.776-1.73-1.734ZM2.445 15.727c0-.957.775-1.734 1.73-1.734h.009c.955 0 1.73.777 1.73 1.734 0 .958-.775 1.735-1.73 1.735h-.009c-.955 0-1.73-.777-1.73-1.735ZM2.445 25.266c0-.958.775-1.734 1.73-1.734h.009c.955 0 1.73.776 1.73 1.734S5.139 27 4.184 27h-.009c-.955 0-1.73-.776-1.73-1.734Z" fill="currentColor"/></svg>