<svg viewBox="0 0 24 24" fill="none" xmlns="http://www.w3.org/2000/svg"><path fill-rule="evenodd" clip-rule="evenodd" d="M21 6a1 1 0 0 1-1 1h-9.172a2.999 2.999 0 0 1-5.656 0H4a1 1 0 0 1 0-2h1.172a3 3 0 0 1 5.656 0H20a1 1 0 0 1 1 1Zm0 6a1 1 0 0 1-1 1h-1.172a2.999 2.999 0 0 1-5.656 0H4a1 1 0 1 1 0-2h9.172a2.999 2.999 0 0 1 5.656 0H20a1 1 0 0 1 1 1Zm0 6a1 1 0 0 1-1 1h-9.172a2.999 2.999 0 0 1-5.656 0H4a1 1 0 1 1 0-2h1.172a3 3 0 0 1 5.656 0H20a1 1 0 0 1 1 1Zm-4-6a1 1 0 1 0-2 0 1 1 0 0 0 2 0ZM9 6a1 1 0 1 0-2 0 1 1 0 0 0 2 0Zm0 12a1 1 0 1 0-2 0 1 1 0 0 0 2 0Z" fill="currentColor"/></svg>