<svg xmlns="http://www.w3.org/2000/svg" fill="none" viewBox="0 0 24 24"><path fill="currentColor" d="M12 1.5C6.1968 1.5 1.5 6.1968 1.5 12C1.5 17.8032 6.1968 22.5 12 22.5C17.8032 22.5 22.5 17.8032 22.5 12C22.5 6.1968 17.8032 1.5 12 1.5ZM10.4376 5.4984C10.6392 5.4672 10.8504 5.436 11.0664 5.4216C11.292 5.4072 11.5008 5.3976 11.6808 5.3976C11.8752 5.3976 12.0936 5.4048 12.3264 5.4216C12.552 5.436 12.7704 5.4672 12.9648 5.4984C12.996 5.7 13.02 5.8944 13.0344 6.0888C13.0416 6.2832 13.0488 6.4848 13.0488 6.6792C13.0488 6.8664 13.0416 7.0608 13.0344 7.2624C13.02 7.464 12.996 7.6584 12.9648 7.8624C12.7704 7.8936 12.5592 7.9176 12.336 7.932C12.1104 7.9392 11.9016 7.9464 11.7048 7.9464C11.5176 7.9464 11.3088 7.9392 11.0832 7.932C10.8504 7.9176 10.6392 7.8936 10.4376 7.8624C10.368 7.4664 10.3368 7.068 10.3368 6.6792C10.3344 6.3072 10.3656 5.9112 10.4376 5.4984ZM14.3568 18.6024H9.6432C9.5736 18.3 9.5424 17.988 9.5424 17.6688C9.5424 17.52 9.5496 17.3568 9.5664 17.1864C9.5808 17.016 9.612 16.8528 9.6432 16.704H10.7952V11.292H9.6432C9.612 11.1432 9.5808 10.98 9.5664 10.8096C9.552 10.6392 9.5424 10.4832 9.5424 10.3272C9.5424 10.008 9.5736 9.6984 9.6432 9.3936H13.2048V16.704H14.3568C14.388 16.8528 14.4192 17.016 14.4336 17.1864C14.448 17.3568 14.4576 17.52 14.4576 17.6688C14.4576 17.988 14.4264 18.3 14.3568 18.6024Z"/></svg>