<svg xmlns="http://www.w3.org/2000/svg" fill="none" viewBox="0 0 24 24"><path fill="currentColor" d="M11.9909 21.1134C9.72137 21.1134 7.45422 21.1134 5.18465 21.1134C4.86492 21.1134 4.72928 20.9778 4.72928 20.658C4.72928 17.9694 4.72928 12.8611 4.72928 10.1725C4.72928 10.1216 4.74139 10.0683 4.72686 10.0247C4.70748 9.96902 4.676 9.89877 4.62997 9.87697C4.59364 9.86002 4.51129 9.88666 4.47496 9.92057C4.29572 10.095 4.12616 10.2766 3.95419 10.4559C3.75073 10.669 3.54969 10.8822 3.34623 11.0953C3.08463 11.3666 2.78913 11.3497 2.55902 11.0517C1.85417 10.1289 1.15174 9.20361 0.449312 8.28076C0.420246 8.24201 0.388758 8.20083 0.35727 8.16208C0.136853 7.87868 0.146541 7.68007 0.393603 7.42089C1.47631 6.28974 2.55902 5.16101 3.64173 4.02986C3.90332 3.75615 4.16734 3.48487 4.42651 3.20632C4.62755 2.99075 4.86977 2.88902 5.1677 2.88902C6.32065 2.89386 7.47118 2.88902 8.62413 2.89144C8.90752 2.89144 9.01894 3.00044 9.00199 3.28141C8.91479 4.76378 9.89092 5.99908 11.1868 6.35756C13.1657 6.9074 15.0647 5.39354 14.9969 3.32501C14.9944 3.24266 14.992 3.15304 15.0211 3.07553C15.0768 2.92293 15.2076 2.8866 15.3602 2.8866C16.2733 2.88902 17.1841 2.8866 18.0972 2.8866C18.3612 2.8866 18.6253 2.8866 18.8893 2.8866C19.1412 2.8866 19.3543 2.98106 19.5287 3.16272C20.8876 4.57969 22.2464 5.99908 23.6052 7.41605C23.8499 7.67038 23.862 7.86657 23.6513 8.14512C22.9125 9.11641 22.1713 10.0877 21.4326 11.059C21.2146 11.3424 20.9142 11.3593 20.6671 11.1026C20.3038 10.7247 19.9453 10.3445 19.5772 9.97144C19.5263 9.91815 19.4318 9.86728 19.3664 9.87697C19.2574 9.89151 19.2647 10.0053 19.2647 10.0974C19.2647 12.8054 19.2647 17.9355 19.2647 20.6411C19.2647 20.738 19.2478 20.8421 19.2066 20.9269C19.1291 21.0843 18.9765 21.111 18.8118 21.111C16.9927 21.111 15.1713 21.111 13.3522 21.111C12.8993 21.111 12.4439 21.111 11.9909 21.111V21.1134Z"/><path fill="#fff" d="M11.998 8.669C12.23 8.669 12.417 8.481 12.417 8.25 12.417 8.018 12.23 7.831 11.998 7.831 11.767 7.831 11.579 8.018 11.579 8.25 11.579 8.481 11.767 8.669 11.998 8.669ZM11.998 10.947C12.23 10.947 12.417 10.759 12.417 10.528 12.417 10.296 12.23 10.109 11.998 10.109 11.767 10.109 11.579 10.296 11.579 10.528 11.579 10.759 11.767 10.947 11.998 10.947ZM11.998 13.224C12.23 13.224 12.417 13.037 12.417 12.805 12.417 12.574 12.23 12.386 11.998 12.386 11.767 12.386 11.579 12.574 11.579 12.805 11.579 13.037 11.767 13.224 11.998 13.224Z"/></svg>