<svg xmlns="http://www.w3.org/2000/svg" fill="none" viewBox="0 0 24 24"><path stroke="currentColor" stroke-linecap="round" stroke-linejoin="round" stroke-width="2" d="M10.2335 4.42158H4.39288C3.77327 4.42158 3.17904 4.66772 2.74091 5.10585C2.30278 5.54398 2.05664 6.1382 2.05664 6.75782V19.6071C2.05664 20.2267 2.30278 20.8209 2.74091 21.259C3.17904 21.6972 3.77327 21.9434 4.39288 21.9434H17.2422C17.8617 21.9434 18.456 21.6972 18.8941 21.259C19.3323 20.8209 19.5784 20.2267 19.5784 19.6071V13.7665M17.9267 2.76986C18.1422 2.54672 18.4 2.36875 18.685 2.24631C18.9701 2.12387 19.2766 2.05942 19.5869 2.05673C19.897 2.05403 20.2047 2.11314 20.4918 2.23061C20.7789 2.34808 21.0398 2.52155 21.2591 2.7409C21.4784 2.96026 21.6519 3.2211 21.7694 3.50822C21.8868 3.79533 21.946 4.10297 21.9433 4.41317C21.9406 4.72337 21.8762 5.02994 21.7537 5.31497C21.6312 5.6 21.4533 5.85779 21.2301 6.07329L11.2007 16.1027H7.89721V12.7993L17.9267 2.76986Z"/></svg>