<svg xmlns="http://www.w3.org/2000/svg" fill="none" viewBox="0 0 24 24"><path fill="currentColor" d="M9.46496 2.95451L17.4149 10.9045C17.719 11.2086 17.8679 11.6045 17.8679 12.0004C17.8679 12.3963 17.7158 12.7954 17.4149 13.0963L9.46496 21.0463C8.86 21.6512 7.87813 21.6512 7.27 21.0463L6.58586 20.3621C5.9809 19.7572 5.9809 18.7753 6.58586 18.1672L11.6599 13.0931C11.964 12.7891 12.1128 12.3931 12.1128 11.9972C12.1128 11.6013 11.9608 11.2022 11.6599 10.9013L6.58586 5.82728C5.9809 5.22232 5.9809 4.24045 6.58586 3.63232L7.27 2.94818C7.87813 2.34955 8.86 2.34955 9.46496 2.95451Z"/></svg>