<svg xmlns="http://www.w3.org/2000/svg" fill="none" viewBox="0 0 24 24"><path fill="currentColor" d="M12.0048 1.5C6.2016 1.5 1.5 6.2016 1.5 11.9952C1.5 17.7984 6.2016 22.5 12.0048 22.5C17.7984 22.5 22.5 17.7984 22.5 11.9952C22.5 6.2016 17.7984 1.5 12.0048 1.5ZM13.2072 19.2864C12.6888 19.3728 12.1944 19.416 11.7168 19.416C11.2152 19.416 10.704 19.3728 10.2024 19.2864C10.1256 18.7848 10.0824 18.2904 10.0824 17.796C10.0824 17.3016 10.1256 16.8 10.2024 16.2816C10.704 16.2048 11.208 16.1616 11.6928 16.1616C12.1872 16.1616 12.6888 16.2048 13.2072 16.2816C13.2936 16.8024 13.3296 17.304 13.3296 17.7792C13.3296 18.2832 13.2936 18.7848 13.2072 19.2864ZM15.9264 10.4184C15.684 10.8864 15.3816 11.2752 15.0336 11.5968C14.688 11.9184 14.3328 12.1776 13.9608 12.3672C13.596 12.5664 13.2936 12.7128 13.068 12.8088V14.6712C12.5928 14.748 12.132 14.7912 11.6904 14.7912C11.2488 14.7912 10.8168 14.748 10.4088 14.6712V11.1552C10.7208 11.1024 11.0496 11.0256 11.388 10.9224C11.7264 10.8192 12.0456 10.68 12.3312 10.4976C12.6168 10.3248 12.852 10.0992 13.032 9.84C13.2144 9.5712 13.308 9.2424 13.308 8.844C13.308 8.2632 13.092 7.8144 12.6768 7.5096C12.252 7.1976 11.6904 7.0512 10.9968 7.0512C10.7112 7.0512 10.4592 7.0608 10.2336 7.0776C10.008 7.0944 9.8016 7.1304 9.6096 7.1808C9.42 7.224 9.2208 7.284 9.0216 7.3464C8.832 7.4064 8.6232 7.476 8.3976 7.5624C8.208 7.2072 8.052 6.8352 7.9296 6.4536C7.8096 6.072 7.7304 5.6736 7.704 5.268C8.0592 5.148 8.388 5.0424 8.6904 4.956C8.9856 4.86 9.2784 4.7904 9.564 4.74C9.8496 4.6872 10.1352 4.644 10.4208 4.6272C10.7064 4.6104 11.0184 4.5936 11.3376 4.5936C12.9744 4.5936 14.2128 4.9656 15.0432 5.7096C15.8736 6.4536 16.2912 7.4664 16.2912 8.7672C16.2984 9.4056 16.1688 9.9528 15.9264 10.4184Z"/></svg>