<svg width="16" height="16" viewBox="0 0 16 16" fill="none" xmlns="http://www.w3.org/2000/svg">
<g opacity="0.9">
<path fill-rule="evenodd" clip-rule="evenodd" d="M7.9987 13.6654C11.1283 13.6654 13.6654 11.1283 13.6654 7.9987C13.6654 4.86908 11.1283 2.33203 7.9987 2.33203C4.86908 2.33203 2.33203 4.86908 2.33203 7.9987C2.33203 11.1283 4.86908 13.6654 7.9987 13.6654ZM5.18748 8.28388C5.20226 8.31961 5.22361 8.35226 5.25042 8.38014L7.25826 10.3806C7.28476 10.4115 7.31758 10.4363 7.35452 10.4534C7.43356 10.486 7.5223 10.486 7.60134 10.4534C7.63827 10.4363 7.6711 10.4115 7.69759 10.3806L11.253 6.84371C11.2798 6.81583 11.3011 6.78318 11.3159 6.74745C11.3454 6.66782 11.3454 6.58026 11.3159 6.50063C11.3014 6.46474 11.28 6.43204 11.253 6.40437L10.8062 5.96998C10.7801 5.93995 10.7479 5.91584 10.7117 5.89924C10.6755 5.88264 10.6362 5.87394 10.5964 5.87372C10.554 5.8732 10.512 5.88161 10.473 5.8984C10.4355 5.91567 10.4015 5.93997 10.3731 5.96998L7.4804 8.86266L6.13278 7.51258C6.10354 7.48238 6.06876 7.45808 6.03035 7.441C5.9915 7.42392 5.94939 7.41549 5.90695 7.41632C5.86778 7.41645 5.82909 7.42486 5.79341 7.441C5.75635 7.45731 5.72344 7.48178 5.69715 7.51258L5.25042 7.9408C5.22335 7.96847 5.20197 8.00117 5.18748 8.03706C5.15799 8.11669 5.15799 8.20425 5.18748 8.28388Z" fill="#075A2A"/>
</g>
</svg>
