<svg xmlns="http://www.w3.org/2000/svg" fill="none" viewBox="0 0 24 24"><path fill="currentColor" d="M17.7264 3.68166C17.7264 3.37206 17.7312 3.08166 17.7264 2.78646C17.7216 2.22246 17.364 1.74966 16.812 1.56966C16.2696 1.39206 15.6816 1.57446 15.3384 2.01846C15.1392 2.27286 15.0552 2.56566 15.0552 2.88486V3.66726C15.0552 3.79206 14.952 3.89286 14.8272 3.89286H13.4136C13.2864 3.89286 13.1856 3.79206 13.1856 3.66726C13.1856 3.39846 13.188 3.13926 13.1856 2.87766C13.176 2.26326 12.8544 1.78326 12.324 1.58646C11.4528 1.26486 10.5336 1.87206 10.512 2.79366C10.5048 3.08166 10.5072 3.37206 10.5096 3.66246C10.5096 3.78726 10.4064 3.88806 10.2816 3.88806H8.82957C8.70237 3.88806 8.60157 3.78726 8.60157 3.66246C8.61117 3.29526 8.62797 2.93766 8.58957 2.58726C8.53437 2.07846 8.20317 1.73766 7.71597 1.57206C7.23597 1.41126 6.79197 1.50246 6.40317 1.83126C6.05757 2.12166 5.93997 2.50566 5.94477 2.93766C5.94717 3.18246 5.94717 3.42726 5.94717 3.68406C5.94717 3.80886 5.84397 3.90966 5.71917 3.90966H1.76877C1.64157 3.90966 1.54077 4.01046 1.54077 4.13526V22.2721C1.54077 22.3969 1.64397 22.4977 1.76877 22.4977H22.2264C22.3536 22.4977 22.4544 22.3969 22.4544 22.2721V4.13286C22.4544 4.00806 22.3512 3.90726 22.2264 3.90726H17.9544C17.8272 3.90726 17.724 3.80646 17.7264 3.68166ZM7.81197 21.6049H2.68077C2.55357 21.6049 2.45277 21.5041 2.45277 21.3793V17.7913C2.45277 17.6665 2.55597 17.5657 2.68077 17.5657H7.81197C7.93917 17.5657 8.03997 17.6665 8.03997 17.7913V21.3769C8.03997 21.5041 7.93917 21.6049 7.81197 21.6049ZM7.81437 16.6441H2.68077C2.55357 16.6441 2.45277 16.5433 2.45277 16.4185V12.6265C2.45277 12.5017 2.55597 12.4009 2.68077 12.4009H7.81437C7.94157 12.4009 8.04237 12.5017 8.04237 12.6265V16.4185C8.04237 16.5433 7.93917 16.6441 7.81437 16.6441ZM7.81677 11.4841H2.68077C2.55357 11.4841 2.45277 11.3833 2.45277 11.2585V7.61766C2.45277 7.49286 2.55597 7.39206 2.68077 7.39206H7.81677C7.94397 7.39206 8.04477 7.49286 8.04477 7.61766V11.2585C8.04477 11.3833 7.94397 11.4841 7.81677 11.4841ZM14.652 21.6073H9.22317C9.09597 21.6073 8.99517 21.5065 8.99517 21.3817V17.8033C8.99517 17.6785 9.09837 17.5777 9.22317 17.5777H14.652C14.7792 17.5777 14.88 17.6785 14.88 17.8033V21.3841C14.8824 21.5065 14.7792 21.6073 14.652 21.6073ZM14.892 16.5217C14.8872 16.5913 14.784 16.6465 14.6568 16.6465H9.22317C9.09597 16.6465 8.99517 16.5457 8.99517 16.4209V12.6265C8.99517 12.5017 9.05517 12.3985 9.12477 12.3937L9.25437 12.3865C11.0424 12.3865 12.828 12.3913 14.6136 12.3817C14.8296 12.3817 14.904 12.4297 14.9016 12.6577C14.892 13.9033 14.8968 15.1537 14.8944 16.3993C14.8968 16.4401 14.8944 16.4785 14.892 16.5217ZM14.8992 11.3497C14.8992 11.4193 14.796 11.4769 14.6712 11.4769H9.21837C9.09117 11.4769 8.99037 11.3761 8.99037 11.2513V7.60326C8.99037 7.47846 9.05037 7.37766 9.12477 7.37766H9.25917C11.0472 7.37766 12.8328 7.38006 14.6184 7.37286C14.8344 7.37046 14.9064 7.42326 14.9016 7.64886C14.892 8.84166 14.8968 10.0297 14.8968 11.2225V11.3497H14.8992ZM16.0464 12.4081H21.3048C21.432 12.4081 21.5328 12.5089 21.5328 12.6337V16.4233C21.5328 16.5481 21.4296 16.6489 21.3048 16.6489H16.0464C15.9192 16.6489 15.8184 16.5481 15.8184 16.4233V12.6313C15.8184 12.5089 15.9216 12.4081 16.0464 12.4081ZM21.3072 21.6049H16.0464C15.9192 21.6049 15.8184 21.5041 15.8184 21.3793V17.7985C15.8184 17.6737 15.9216 17.5729 16.0464 17.5729H21.3072C21.4344 17.5729 21.5352 17.6737 21.5352 17.7985V21.3793C21.54 21.5041 21.4368 21.6049 21.3072 21.6049ZM21.3072 11.4769H16.0464C15.9192 11.4769 15.8184 11.3761 15.8184 11.2513V7.62006C15.8184 7.49526 15.9216 7.39446 16.0464 7.39446H21.3072C21.4344 7.39446 21.5352 7.49526 21.5352 7.62006V11.2513C21.54 11.3761 21.4368 11.4769 21.3072 11.4769Z"/></svg>