<svg width="16" height="16" viewBox="0 0 16 16" fill="none" xmlns="http://www.w3.org/2000/svg">
<path fill-rule="evenodd" clip-rule="evenodd" d="M1.60156 8.00156C1.60156 4.46694 4.46694 1.60156 8.00156 1.60156C11.5362 1.60156 14.4016 4.46694 14.4016 8.00156C14.4016 11.5362 11.5362 14.4016 8.00156 14.4016C4.46694 14.4016 1.60156 11.5362 1.60156 8.00156ZM5.60156 6.20156C5.60156 5.87019 5.87019 5.60156 6.20156 5.60156H6.60156C6.93293 5.60156 7.20156 5.87019 7.20156 6.20156V9.80156C7.20156 10.1329 6.93293 10.4016 6.60156 10.4016H6.20156C5.87019 10.4016 5.60156 10.1329 5.60156 9.80156V6.20156ZM8.80156 6.20156C8.80156 5.87019 9.07019 5.60156 9.40156 5.60156H9.80156C10.1329 5.60156 10.4016 5.87019 10.4016 6.20156V9.80156C10.4016 10.1329 10.1329 10.4016 9.80156 10.4016H9.40156C9.07019 10.4016 8.80156 10.1329 8.80156 9.80156V6.20156Z" fill="#8C8F96"/>
</svg>
