<svg xmlns="http://www.w3.org/2000/svg" fill="none" viewBox="0 0 24 24"><path stroke="currentColor" stroke-linecap="round" stroke-linejoin="round" stroke-width="1.5" d="M8.25 6.8748C7.7544 6.792 7.2528 6.7512 6.75 6.7512H4.8756C4.254 6.7512 3.75 7.2552 3.75 7.8756V20.6244C3.75 20.9229 3.86859 21.2092 4.07968 21.4203C4.29077 21.6314 4.57707 21.75 4.8756 21.75H14.6244C15.246 21.75 15.75 21.246 15.75 20.6256V17.25H9.3744C9.07608 17.2497 8.79009 17.131 8.57926 16.9199C8.36842 16.7088 8.25 16.4227 8.25 16.1244V6.8748ZM8.25 6.8748V3.3756C8.25 3.07728 8.36842 2.79116 8.57926 2.58011C8.79009 2.36905 9.07608 2.25032 9.3744 2.25H11.25C13.6368 2.25064 15.9256 3.19905 17.6133 4.88674C19.3009 6.57443 20.2494 8.86325 20.25 11.25V16.1256C20.25 16.7472 19.746 17.2512 19.1256 17.2512H15.75M20.25 13.5012V11.6244C20.25 11.1812 20.1627 10.7423 19.993 10.3328C19.8234 9.92332 19.5747 9.55127 19.2612 9.23792C18.9478 8.92456 18.5756 8.67603 18.1661 8.50652C17.7566 8.33701 17.3176 8.24984 16.8744 8.25H15.3744C15.2266 8.25 15.0803 8.22088 14.9438 8.1643C14.8073 8.10772 14.6833 8.02478 14.5789 7.92025C14.4745 7.81571 14.3917 7.69162 14.3352 7.55506C14.2788 7.4185 14.2498 7.27216 14.25 7.1244V5.6244C14.2502 5.18112 14.1629 4.74216 13.9933 4.33261C13.8237 3.92306 13.5751 3.55095 13.2616 3.23756C12.9481 2.92417 12.5759 2.67565 12.1663 2.5062C11.7567 2.33674 11.3177 2.24969 10.8744 2.25H9.75"/></svg>