<svg width="195" height="183" fill="none" xmlns="http://www.w3.org/2000/svg"><ellipse cx="97.5" cy="150" rx="97.5" ry="33" fill="#D8D7D7"/><path fill="#F1F1F1" d="M61 73h76v34H61z"/><path d="M90.958 48.646v2.182c0 .57-.464 1.035-1.034 1.035H74.09c-.29 0-.54-.114-.73-.304a1.034 1.034 0 0 1-.304-.73v-2.183c0-.57.463-1.034 1.034-1.034h15.84c.57 0 1.034.464 1.034 1.034h-.007Z" fill="#A8A8A8"/><path d="M89.924 51.855c.289.289.433.662.433 1.034 0 .373-.144.745-.433 1.034l-.289.29H74.38l-.289-.29a1.464 1.464 0 0 1 0-2.068h15.84-.007Z" fill="#D3D3D3"/><path d="M96.007 69.939v2.578h-28v-2.578c0-.715.198-1.422.578-2.03l4.29-6.875a9.917 9.917 0 0 0 1.497-5.247v-1.582h15.263v1.582c0 1.855.517 3.673 1.498 5.247l4.289 6.874c.38.609.585 1.316.585 2.03Z" fill="#E8E8E8"/><path d="M68.236 125.771H95.81a4.572 4.572 0 0 1-1.148 1.924l-.92.928a2.839 2.839 0 0 1-1.993.821H72.274c-.745 0-1.46-.296-1.992-.821l-.928-.928a4.637 4.637 0 0 1-1.148-1.916h.03v-.008Z" fill="#838383"/><path d="M96.008 123.703v.73c0 .456-.069.913-.206 1.346h-.03l-27.544-.008h-.03a4.588 4.588 0 0 1-.198-1.338v-.73h28.008Z" fill="#909090"/><path d="M96.007 72.517h-28v51.186h28V72.517Z" fill="#BABABA"/><path opacity=".31" d="m76.076 128.615-.73-.927a4.912 4.912 0 0 1-.905-1.917 5.6 5.6 0 0 1-.16-1.338V69.939c0-.715.16-1.422.456-2.03l3.384-6.875c.776-1.574 1.187-3.392 1.187-5.247v-1.582l-.229-.29c-.448-.57-.448-1.497 0-2.068-.228 0-.425-.114-.578-.304a1.181 1.181 0 0 1-.235-.73v-2.167c0-.57.365-1.034.813-1.034h-3.505c-.533 0-.966.464-.966 1.034v2.182c0 .29.106.548.281.73.175.183.41.305.677.305a1.54 1.54 0 0 0 0 2.068l.266.29v1.58c0 1.856-.486 3.674-1.399 5.248l-4 6.875a4.095 4.095 0 0 0-.54 2.03v54.494c0 .456.06.913.183 1.339.205.714.57 1.376 1.072 1.916l.867.928a2.559 2.559 0 0 0 1.855.821h3.764c-.585 0-1.155-.297-1.574-.821l.016-.016Z" fill="#fff"/><path d="M123.965 48.034v2.183c0 .57-.464 1.034-1.034 1.034h-15.833a1.036 1.036 0 0 1-1.034-1.034v-2.183c0-.57.464-1.034 1.034-1.034h15.84c.571 0 1.035.464 1.035 1.034h-.008Z" fill="#A8A8A8"/><path d="M122.931 51.243c.289.29.434.662.434 1.035 0 .372-.145.745-.434 1.034l-.289.289h-15.254l-.289-.29a1.463 1.463 0 0 1 0-2.068h15.84-.008Z" fill="#D3D3D3"/><path d="M129.015 69.327v2.578h-28v-2.578c0-.715.197-1.422.578-2.03l4.289-6.875a9.917 9.917 0 0 0 1.498-5.247v-1.582h15.262v1.582c0 1.856.517 3.673 1.498 5.247l4.289 6.875c.38.608.586 1.315.586 2.03Z" fill="#E8E8E8"/><path d="M101.243 125.16h27.574a4.566 4.566 0 0 1-1.148 1.924l-.92.927a2.838 2.838 0 0 1-1.992.822h-19.476c-.745 0-1.46-.297-1.992-.822l-.928-.927a4.635 4.635 0 0 1-1.148-1.917h.03v-.007Z" fill="#838383"/><path d="M129.015 123.091v.73c0 .457-.069.913-.205 1.346h-.031l-27.544-.007h-.03a4.61 4.61 0 0 1-.198-1.339v-.73h28.008Z" fill="#909090"/><path d="M129.015 71.905h-28v51.186h28V71.905Z" fill="#BABABA"/><path opacity=".31" d="m109.083 128.004-.73-.928a4.901 4.901 0 0 1-.905-1.916 5.583 5.583 0 0 1-.16-1.339V69.327c0-.715.16-1.422.456-2.03l3.385-6.875c.775-1.574 1.186-3.392 1.186-5.247v-1.582l-.228-.289c-.449-.57-.449-1.498 0-2.068-.228 0-.426-.114-.578-.304a1.178 1.178 0 0 1-.236-.73v-2.168c0-.57.365-1.034.814-1.034h-3.506c-.532 0-.966.464-.966 1.034v2.183c0 .289.107.547.282.73.174.182.41.304.676.304a1.54 1.54 0 0 0 0 2.068l.267.29v1.581c0 1.856-.487 3.673-1.4 5.247l-4 6.875a4.104 4.104 0 0 0-.54 2.03v54.495c0 .456.061.912.183 1.338.205.715.57 1.376 1.072 1.916l.867.928a2.555 2.555 0 0 0 1.856.821h3.764c-.586 0-1.156-.296-1.574-.821l.015-.015Z" fill="#fff"/><path d="M107.958 59.034v2.183c0 .57-.464 1.034-1.034 1.034H91.091c-.29 0-.54-.114-.73-.304a1.034 1.034 0 0 1-.304-.73v-2.183c0-.57.463-1.034 1.034-1.034h15.84c.571 0 1.034.464 1.034 1.034h-.007Z" fill="#A8A8A8"/><path d="M106.924 62.243c.289.29.433.662.433 1.035 0 .372-.144.745-.433 1.034l-.289.289H91.38l-.289-.29a1.464 1.464 0 0 1 0-2.068h15.841-.008Z" fill="#EBEBEB"/><path d="M113.007 80.327v2.578h-28v-2.578c0-.715.198-1.422.578-2.03l4.29-6.875a9.917 9.917 0 0 0 1.497-5.247v-1.582h15.263v1.582c0 1.856.517 3.673 1.498 5.247l4.289 6.875c.38.608.585 1.315.585 2.03Z" fill="#FCFCFC"/><path d="M85.236 136.16h27.574a4.566 4.566 0 0 1-1.148 1.924l-.92.927a2.84 2.84 0 0 1-1.993.822H89.274a2.84 2.84 0 0 1-1.992-.822l-.928-.927a4.64 4.64 0 0 1-1.148-1.917h.03v-.007Z" fill="#838383"/><path d="M113.008 134.091v.73c0 .457-.069.913-.206 1.346h-.03l-27.544-.007h-.03a4.6 4.6 0 0 1-.198-1.339v-.73h28.008Z" fill="#909090"/><path d="M113.007 82.905h-28v51.186h28V82.905Z" fill="#E3E3E3"/><path opacity=".31" d="m93.076 139.004-.73-.928a4.908 4.908 0 0 1-.905-1.916 5.608 5.608 0 0 1-.16-1.339V80.327c0-.715.16-1.422.456-2.03l3.384-6.875c.776-1.574 1.187-3.392 1.187-5.247v-1.582l-.229-.289c-.448-.57-.448-1.498 0-2.068-.228 0-.425-.114-.578-.304a1.181 1.181 0 0 1-.235-.73v-2.168c0-.57.365-1.034.813-1.034h-3.505c-.533 0-.966.464-.966 1.034v2.183c0 .289.106.547.281.73.175.182.41.304.677.304a1.54 1.54 0 0 0 0 2.068l.266.29v1.581c0 1.856-.486 3.673-1.399 5.247l-4 6.875a4.095 4.095 0 0 0-.54 2.03v54.495c0 .456.06.912.183 1.338.205.715.57 1.376 1.072 1.916l.867.928a2.555 2.555 0 0 0 1.855.821h3.764c-.585 0-1.155-.296-1.574-.821l.016-.015Z" fill="#fff"/><path d="m135 158.5 2-85.5 12 29-2.5 58-11.5-1.5Z" fill="#AAA"/><path d="m135 158.5 2-85.5 12 29-2.5 58-11.5-1.5Z" fill="#CCC"/><path d="M61 159.5V73l-13.5 29 2 57.5H61Z" fill="#AAA"/><path d="M61 159.5V73l-13.5 29 2 57.5H61Z" fill="#CCC"/><path d="M146.5 162.5h-99V102H149l-2.5 60.5Z" fill="#F8F8F8"/><path d="m116.644 26.23 13.437 10.356m-12.252 1.251 11.067-12.859" stroke="#BABABA" stroke-width="3" stroke-linecap="round"/><path d="m99.972 14.807-4.555 11.014-4.887.098 5.146-12.02c.146-.333.24-.717.282-1.15a5.537 5.537 0 0 0-.026-1.299 4.418 4.418 0 0 0-.368-1.253 3.727 3.727 0 0 0-.672-1.094 4.1 4.1 0 0 0-2.924-1.087c-.61.012-1.093.123-1.445.334-.327.185-.665.472-1.014.86-.672.778-.996 1.752-.973 2.923l-4.505.09c-.044-2.215.67-4.088 2.141-5.62 1.575-1.508 3.481-2.284 5.721-2.329 1.171-.023 2.294.133 3.37.468 1.102.334 2.055.85 2.858 1.547a6.015 6.015 0 0 1 1.372 1.767c.395.68.677 1.413.846 2.199.168.76.222 1.536.161 2.326a5.927 5.927 0 0 1-.528 2.226ZM95.326 28.88l.087 4.39-5.001.1-.088-4.39 5.002-.1Z" fill="#BABABA"/><path d="m47 47.032 14.994 12.93m-13.962 1.032L60.962 46" stroke="#BABABA" stroke-width="3" stroke-linecap="round"/></svg>