<svg xmlns="http://www.w3.org/2000/svg" viewBox="0 0 32 32" fill="none"><path d="M15.749 7.657V24.83h-3.408v-7.468H5.093v7.468H1.709V7.657h3.384v6.957h7.248V7.657h3.408ZM24.506 7c1.152 0 2.136.203 2.952.608.832.406 1.456.965 1.872 1.678.432.714.648 1.509.648 2.384 0 1.103-.296 2.011-.888 2.725-.592.697-1.376 1.127-2.352 1.289v.121c2.368.714 3.552 2.125 3.552 4.233 0 1.476-.488 2.675-1.464 3.6-.976.908-2.352 1.362-4.128 1.362-1.888 0-3.392-.47-4.512-1.41-1.12-.958-1.744-2.393-1.872-4.306h3.312c.08.876.36 1.573.84 2.092.496.502 1.192.754 2.088.754.768 0 1.368-.211 1.8-.633.432-.438.648-1.005.648-1.702 0-.827-.312-1.46-.936-1.898-.624-.438-1.544-.656-2.76-.656h-.696v-2.798h.696c2.24.033 3.36-.754 3.36-2.36 0-.697-.2-1.24-.6-1.629-.4-.405-.944-.608-1.632-.608-.72 0-1.312.235-1.776.705-.464.454-.728 1.095-.792 1.922h-3.312c.096-1.751.656-3.097 1.68-4.038C21.258 7.478 22.682 7 24.506 7Z" fill="currentColor"/></svg>