<svg xmlns="http://www.w3.org/2000/svg" viewBox="0 0 32 32" fill="none"><path d="M15.847 7.374V25h-3.408v-7.664H5.19V25H1.807V7.374H5.19v7.14h7.248v-7.14h3.408ZM18.268 22.229c5.424-3.911 8.136-7.157 8.136-9.737 0-.782-.184-1.398-.552-1.847-.352-.45-.912-.674-1.68-.674-1.584 0-2.424 1.123-2.52 3.37h-3.288c.096-2.08.704-3.653 1.824-4.718C21.308 7.54 22.724 7 24.436 7c1.744 0 3.08.474 4.008 1.423.944.932 1.416 2.18 1.416 3.745 0 1.231-.352 2.471-1.056 3.72a15.037 15.037 0 0 1-2.64 3.42 21.308 21.308 0 0 1-3.384 2.671h7.416v2.871H18.268V22.23Z" fill="currentColor"/></svg>