<svg xmlns="http://www.w3.org/2000/svg" viewBox="0 0 32 32" fill="none"><path d="M15.352 7.61v17.22h-3.408v-7.488H4.696v7.487H1.314V7.61h3.384v6.976h7.247V7.61h3.408ZM26.99 12.293c-.256-1.691-1.104-2.537-2.544-2.537-1.12 0-1.936.504-2.448 1.512-.512.992-.736 2.553-.672 4.683.256-.78.752-1.398 1.488-1.853.752-.472 1.624-.708 2.616-.708 1.632 0 2.912.504 3.84 1.512.944.992 1.416 2.407 1.416 4.244 0 1.139-.224 2.147-.672 3.025-.448.878-1.12 1.569-2.016 2.073-.88.504-1.952.756-3.216.756-2.464 0-4.16-.772-5.088-2.317-.928-1.561-1.392-3.707-1.392-6.44 0-3.137.496-5.462 1.488-6.975C20.798 7.756 22.422 7 24.662 7c1.712 0 3.024.496 3.936 1.488.912.992 1.432 2.26 1.56 3.805H26.99Zm-5.376 6.61c0 .91.256 1.666.768 2.268.528.585 1.296.878 2.304.878.864 0 1.552-.26 2.064-.78.512-.521.768-1.245.768-2.171 0-.976-.264-1.724-.792-2.244-.512-.52-1.208-.78-2.088-.78-.832 0-1.544.243-2.136.73-.592.489-.888 1.188-.888 2.098Z" fill="currentColor"/></svg>