<svg xmlns="http://www.w3.org/2000/svg" fill="none" viewBox="0 0 24 24"><g><path fill="currentColor" d="M11.3496 3.99609H12.6408C12.7176 4.01289 12.7944 4.03929 12.8736 4.04409C13.8072 4.11609 14.712 4.32729 15.5856 4.64889C18.684 5.79609 21.2136 7.73769 23.2992 10.2721C24.2472 11.4241 24.2256 12.5953 23.2848 13.7593C21.9912 15.3625 20.4552 16.6945 18.7248 17.8033C17.2992 18.7153 15.78 19.4185 14.1168 19.7737C13.6296 19.8769 13.1328 19.9369 12.6408 20.0161H11.3496C11.2728 19.9993 11.1936 19.9729 11.1144 19.9681C10.3104 19.9009 9.52317 19.7353 8.75997 19.4761C5.46957 18.3601 2.82717 16.3321 0.635971 13.6777C0.283171 13.2505 0.055171 12.7537 0.00717095 12.1921C-0.057629 11.3881 0.292771 10.7353 0.784771 10.1401C2.10237 8.54889 3.65037 7.21449 5.39997 6.11769C6.85677 5.20329 8.40717 4.50969 10.1064 4.18569C10.5192 4.10649 10.9344 4.05849 11.3496 3.99609ZM6.99357 12.0073C6.99357 14.7505 9.23757 17.0017 11.9808 17.0065C14.7312 17.0137 16.9944 14.7529 16.9944 12.0025C16.9944 9.25929 14.7456 7.01049 12.0024 7.00569C9.24237 7.00089 6.99357 9.24729 6.99357 12.0073ZM12.936 9.17529C11.94 10.0081 11.7216 10.8985 12.3072 11.7457C12.8976 12.6001 13.7856 12.6985 14.9736 12.0433C15.096 13.0657 14.2368 14.3425 13.1184 14.7937C11.856 15.3025 10.3968 14.8921 9.59037 13.8049C8.76957 12.6985 8.78877 11.1985 9.63837 10.1425C10.4448 9.13929 11.892 8.71449 12.936 9.17529Z"/></g><defs><clipPath><path fill="#fff" d="M0 0H24V24H0z"/></clipPath></defs></svg>