<svg width="24" height="24" fill="none" xmlns="http://www.w3.org/2000/svg"><path d="m11.998 9.548 3.635-1.452-9-3.6L3.53 5.737a1.798 1.798 0 0 0-.437.25l8.905 3.563v-.002ZM2.44 7.02a1.8 1.8 0 0 0-.042.388v9.175a1.8 1.8 0 0 0 1.132 1.671l6.908 2.764c.312.125.634.21.96.257V10.602L2.44 7.019Zm10.158 14.256c.33-.047.652-.134.96-.257l6.909-2.763a1.8 1.8 0 0 0 1.131-1.673V7.408a1.82 1.82 0 0 0-.042-.39l-8.958 3.584v10.673Zm8.306-15.288L17.248 7.45l-9-3.6 2.19-.879a4.2 4.2 0 0 1 3.12 0l6.909 2.764a1.8 1.8 0 0 1 .437.25v.002Z" fill="currentColor"/></svg>