<svg viewBox="0 0 32 32" fill="none" xmlns="http://www.w3.org/2000/svg"><path fill-rule="evenodd" clip-rule="evenodd" d="M8.54 5.343c0-.48.388-.868.868-.868H28.52c.48 0 .87.389.87.868v1.738c0 .48-.39.869-.87.869H9.408a.869.869 0 0 1-.869-.869V5.343ZM8.54 14.9c0-.48.388-.869.868-.869H28.52c.48 0 .87.39.87.869v1.738c0 .48-.39.868-.87.868H9.408a.869.869 0 0 1-.869-.868V14.9ZM8.54 24.457c0-.48.388-.87.868-.87H28.52c.48 0 .87.39.87.87v1.737c0 .48-.39.87-.87.87H9.408a.869.869 0 0 1-.869-.87v-1.737Z" fill="#6F7CA3"/><path d="M4.501 8.819h-.98V5.038l-1.171.363v-.797l2.046-.733h.105v4.948ZM5.507 18.375H2.12v-.672L3.718 16c.22-.24.382-.45.486-.628a1 1 0 0 0 .16-.51c0-.219-.056-.39-.167-.515-.111-.127-.27-.19-.475-.19a.65.65 0 0 0-.526.23c-.127.152-.19.352-.19.601H2.02c0-.3.072-.575.214-.824a1.52 1.52 0 0 1 .611-.584 1.84 1.84 0 0 1 .893-.214c.509 0 .904.122 1.184.367.283.244.424.59.424 1.035 0 .244-.063.493-.19.746-.126.254-.344.55-.651.886l-1.124 1.185h2.125v.79ZM3.117 25.027h.522c.249 0 .433-.062.553-.187.12-.124.18-.29.18-.495 0-.2-.06-.354-.18-.465-.117-.111-.28-.166-.488-.166a.718.718 0 0 0-.472.156.489.489 0 0 0-.19.4h-.98c0-.258.068-.488.206-.692a1.4 1.4 0 0 1 .584-.482 1.96 1.96 0 0 1 .828-.173c.523 0 .932.125 1.228.377.297.248.445.592.445 1.031 0 .227-.069.435-.207.625-.138.19-.319.336-.543.438.278.099.485.248.621.448.138.199.207.434.207.705 0 .44-.16.791-.482 1.056-.319.264-.742.397-1.27.397-.492 0-.896-.13-1.21-.39-.313-.26-.469-.604-.469-1.032h.98a.57.57 0 0 0 .208.455c.14.117.312.176.516.176.233 0 .415-.061.546-.183a.641.641 0 0 0 .2-.492c0-.493-.271-.74-.814-.74h-.52v-.767Z" fill="currentColor"/></svg>