<svg xmlns="http://www.w3.org/2000/svg" fill="none" viewBox="0 0 24 24"><path fill="currentColor" d="M16.8664 13.5483C16.5374 13.1357 16.0304 13.1519 15.7311 13.5861C15.5666 13.8261 15.4021 14.0607 15.2402 14.2954C14.9409 14.7295 14.4177 14.7592 14.0725 14.3601C13.3363 13.5106 12.6297 12.6961 11.9177 11.879C11.5725 11.4799 11.017 11.4853 10.6772 11.8871L9.60116 13.1681C9.26136 13.5726 8.75166 13.6913 8.4631 13.4351C8.17454 13.1789 7.7808 13.1789 7.58393 13.4324C7.38706 13.6859 7.04996 13.5888 6.83421 13.2166C6.70476 12.9928 6.57531 12.7689 6.44317 12.5451C6.3326 12.3536 6.21394 12.2431 6.17888 12.2997C6.15461 12.3375 6.13573 12.3698 6.11955 12.4022C5.40758 13.7317 3.79757 16.6308 3.61149 16.5877L3.38766 18.7991H20.0811C20.6096 18.7991 20.7715 18.4647 20.4424 18.052L16.8664 13.5483ZM14.7009 10.1665C16.0844 10.1719 17.1631 9.12552 17.182 7.76093C17.2008 6.35318 16.1221 5.22051 14.7467 5.19893C13.3417 5.17736 12.1901 6.3343 12.209 7.74474C12.2306 9.09316 13.3309 10.1611 14.7009 10.1665ZM22.7428 2.17578H1.25446C0.677337 2.17578 0.199997 2.64503 0.199997 3.23024V20.7651C0.199997 21.3476 0.677337 21.8249 1.25446 21.8249H22.7455C23.3281 21.8249 23.8 21.3476 23.8 20.7651V3.23024C23.7973 2.64773 23.3281 2.17578 22.7428 2.17578ZM22.4246 19.538C22.4246 20.1151 21.9554 20.5925 21.3701 20.5925H2.62445C2.04733 20.5925 1.56999 20.1151 1.56999 19.538V4.46539C1.56999 3.88288 2.04733 3.41093 2.62445 3.41093H21.3728C21.9554 3.41093 22.4273 3.88018 22.4273 4.46539V19.538H22.4246Z"/></svg>