<svg xmlns="http://www.w3.org/2000/svg" fill="none" viewBox="0 0 24 24"><path fill="currentColor" d="M2.95451 14.5349L10.9045 6.58487C11.2086 6.2808 11.6045 6.13194 12.0004 6.13194C12.3963 6.13194 12.7954 6.28397 13.0963 6.58487L21.0463 14.5349C21.6512 15.1398 21.6512 16.1217 21.0463 16.7298L20.3621 17.414C19.7572 18.0189 18.7753 18.0189 18.1672 17.414L13.0931 12.3399C12.7891 12.0358 12.3931 11.887 11.9972 11.887C11.6013 11.887 11.2022 12.039 10.9013 12.3399L5.82728 17.414C5.22232 18.0189 4.24045 18.0189 3.63232 17.414L2.94818 16.7298C2.34955 16.1217 2.34955 15.1398 2.95451 14.5349Z"/></svg>