<svg xmlns="http://www.w3.org/2000/svg" fill="none" viewBox="0 0 24 24"><path fill="currentColor" d="M20.2776 5.6016C17.5152 5.6136 14.7528 5.6088 11.9904 5.6088V5.6064H3.7032C3.4176 5.6064 3.1488 5.568 3.2208 6.024C3.6288 8.6088 4.0176 11.196 4.416 13.7808C4.8072 16.3344 5.2608 18.8784 5.5704 21.4392C5.7312 22.7784 6.864 24.024 8.4024 24C10.7832 23.9616 13.1616 23.9976 15.5424 23.988C17.1432 23.9808 18.1704 23.064 18.4056 21.4776C18.8808 18.2904 19.3584 15.1032 19.8408 11.916C20.1336 9.9792 20.4216 8.0424 20.7408 6.1104C20.8104 5.6736 20.6736 5.6016 20.2776 5.6016ZM12.6648 9.1872C12.648 13.0488 12.6624 16.9104 12.66 20.772H11.3376C11.3352 18.8496 11.3352 16.9248 11.3352 15.0024H11.34C11.34 13.0248 11.352 11.0472 11.3304 9.0696C11.3304 9.0096 11.3328 8.9592 11.3376 8.9112H12.648C12.66 8.9904 12.6648 9.084 12.6648 9.1872ZM5.7312 8.9112H7.0512C7.0824 9.0024 7.1016 9.1104 7.1184 9.2376C7.4568 11.9688 7.848 14.6928 8.2272 17.4192C8.3832 18.5376 8.5584 19.6512 8.6952 20.772H7.3584C6.9984 18.1848 6.636 15.6 6.2784 13.0128C6.0912 11.6616 5.9184 10.308 5.736 8.9544L5.7312 8.9112ZM17.5824 13.716C17.256 16.068 16.9008 18.4152 16.6176 20.772H15.2832C15.828 16.8936 16.3464 13.0128 16.8768 9.1344C16.8864 9.0672 16.8864 8.988 16.8936 8.9112H18.2592C18.2448 9.0072 18.216 9.1104 18.204 9.1944C18.0024 10.704 17.7936 12.2112 17.5824 13.716ZM22.596 3.7872C22.3368 3.1704 21.912 2.664 21.4392 2.2008C20.9232 1.6968 20.34 1.4088 19.5816 1.428C18.1224 1.464 16.6632 1.428 15.204 1.44C14.8872 1.4424 14.7144 1.3968 14.616 1.0416C14.412 0.3072 13.9512 0.0048 13.1928 0.0024C12.3768 0 11.5608 -0.0024 10.7448 0.0048C10.0296 0.0096 9.5592 0.3432 9.3624 1.032C9.2688 1.3584 9.1224 1.4544 8.784 1.4496C7.3248 1.4256 5.8656 1.4256 4.4088 1.44C3.1248 1.452 1.6056 2.7192 1.32 3.972C1.2336 4.3584 1.368 4.5816 1.7448 4.6512C1.932 4.6848 2.124 4.6872 2.3136 4.6872C5.5272 4.6896 8.7408 4.6896 11.952 4.6872H16.3272L20.7552 4.6896C21.1896 4.6896 21.6264 4.7016 22.056 4.668C22.6464 4.6224 22.8216 4.3224 22.596 3.7872Z"/></svg>