<svg width="24" height="24" fill="none" xmlns="http://www.w3.org/2000/svg"><path d="M6.682 19.432a2.564 2.564 0 0 1-1.884-.776 2.564 2.564 0 0 1-.775-1.883c-.488 0-.905-.174-1.252-.52A1.708 1.708 0 0 1 2.25 15V7.023c0-.488.174-.905.521-1.252a1.705 1.705 0 0 1 1.252-.521h10.636c.488 0 .905.174 1.252.521.347.347.52.764.52 1.252v1.772h2.217c.148 0 .28.03.399.09.118.058.221.147.31.265l2.216 2.947c.059.074.103.155.133.244.03.089.044.185.044.288v3.257a.855.855 0 0 1-.255.631.856.856 0 0 1-.631.256h-.887c0 .738-.258 1.366-.775 1.883a2.564 2.564 0 0 1-1.884.776 2.564 2.564 0 0 1-1.883-.776 2.564 2.564 0 0 1-.776-1.883H9.341c0 .738-.259 1.366-.776 1.883a2.564 2.564 0 0 1-1.883.776Zm0-1.773a.858.858 0 0 0 .632-.255c.17-.17.254-.38.254-.631a.857.857 0 0 0-.254-.631.859.859 0 0 0-.632-.256.859.859 0 0 0-.632.256.857.857 0 0 0-.255.63c0 .252.085.462.255.632.17.17.38.255.632.255Zm10.636 0a.855.855 0 0 0 .631-.255c.17-.17.255-.38.255-.631a.855.855 0 0 0-.255-.631.856.856 0 0 0-.63-.256.856.856 0 0 0-.632.256.855.855 0 0 0-.255.63c0 .252.085.462.255.632.17.17.38.255.631.255Zm-.886-4.432h3.767l-1.995-2.659h-1.772v2.66Z" fill="currentColor"/></svg>