<svg viewBox="0 0 40 40" fill="none" xmlns="http://www.w3.org/2000/svg"><circle opacity=".6" cx="19.998" cy="20.002" r="16.643" fill="#fff" stroke="#C9CBCF"/><path d="M22.677 17.083c0-.552-.235-1.082-.654-1.473a2.315 2.315 0 0 0-1.578-.61h-5.357c-.592 0-1.16.22-1.579.61-.418.39-.654.92-.654 1.473v5.834c0 .552.236 1.082.654 1.473.419.39.987.61 1.579.61h5.357c.592 0 1.16-.22 1.578-.61.419-.39.654-.92.654-1.473v-5.834Zm.893 1.192v3.46l2.468 1.958a.713.713 0 0 0 .715.091.658.658 0 0 0 .283-.23.595.595 0 0 0 .105-.337v-6.39a.595.595 0 0 0-.105-.334.657.657 0 0 0-.28-.23.712.712 0 0 0-.713.085l-2.473 1.927Z" fill="#5C5E62"/></svg>