<svg xmlns="http://www.w3.org/2000/svg" fill="none" viewBox="0 0 24 24"><g><path stroke="currentColor" stroke-linecap="round" stroke-linejoin="round" stroke-width="1.5" d="M11.9999 4.28578V1.71436M11.9999 4.28578C11.318 4.28578 10.6639 4.5567 10.1817 5.03894C9.69944 5.52117 9.42852 6.17523 9.42852 6.85721C9.42852 7.5392 9.69944 8.19325 10.1817 8.67549C10.6639 9.15772 11.318 9.42864 11.9999 9.42864M11.9999 4.28578C12.6819 4.28578 13.336 4.5567 13.8182 5.03894C14.3005 5.52117 14.5714 6.17523 14.5714 6.85721C14.5714 7.5392 14.3005 8.19325 13.8182 8.67549C13.336 9.15772 12.6819 9.42864 11.9999 9.42864M11.9999 9.42864V22.2858M4.28566 19.7144C4.96765 19.7144 5.6217 19.4434 6.10394 18.9612C6.58617 18.479 6.85709 17.8249 6.85709 17.1429C6.85709 16.4609 6.58617 15.8069 6.10394 15.3247C5.6217 14.8424 4.96765 14.5715 4.28566 14.5715M4.28566 19.7144C3.60368 19.7144 2.94962 19.4434 2.46739 18.9612C1.98515 18.479 1.71423 17.8249 1.71423 17.1429C1.71423 16.4609 1.98515 15.8069 2.46739 15.3247C2.94962 14.8424 3.60368 14.5715 4.28566 14.5715M4.28566 19.7144V22.2858M4.28566 14.5715V1.71436M19.7142 19.7144C20.3962 19.7144 21.0503 19.4434 21.5325 18.9612C22.0147 18.479 22.2857 17.8249 22.2857 17.1429C22.2857 16.4609 22.0147 15.8069 21.5325 15.3247C21.0503 14.8424 20.3962 14.5715 19.7142 14.5715M19.7142 19.7144C19.0322 19.7144 18.3782 19.4434 17.896 18.9612C17.4137 18.479 17.1428 17.8249 17.1428 17.1429C17.1428 16.4609 17.4137 15.8069 17.896 15.3247C18.3782 14.8424 19.0322 14.5715 19.7142 14.5715M19.7142 19.7144V22.2858M19.7142 14.5715V1.71436"/></g><defs><clipPath><path fill="#fff" d="M0 0H24V24H0z"/></clipPath></defs></svg>