<svg xmlns="http://www.w3.org/2000/svg" viewBox="0 0 24 24" fill="none"><g fill="currentColor"><path d="M23.3 13.8C24.2 12.6 24.3 11.5 23.3 10.3 21.2 7.8 18.7 5.8 15.6 4.7 14.7 4.4 13.8 4.2 12.9 4.1 12.8 4.1 12.7 4.1 12.7 4.1H11.4C11 4.2 10.6 4.2 10.2 4.3 10.1 4.3 10 4.4 9.8 4.4L11.6 7C11.7 7 11.9 7 12 7 14.7 7 17 9.3 17 12 17 12.8 16.8 13.6 16.4 14.2L18.8 17.7C20.5 16.7 22 15.3 23.3 13.8ZM6.862.025 5.284 1.083 20.654 24.007 22.233 22.949 6.862.025ZM9.6 13.8C10.3 14.7 11.3 15.1 12.4 15L9.4 10.5C8.8 11.5 8.9 12.8 9.6 13.8Z"/><path d="M12 17C9.3 17 7 14.7 7 12C7 10.8 7.5 9.60001 8.2 8.80001L6.2 5.70001C5.9 5.80001 5.6 6.00001 5.4 6.10001C3.7 7.20001 2.1 8.50001 0.8 10.1C0.3 10.7 0 11.3 0 12.2C0 12.8 0.3 13.3 0.6 13.7C2.8 16.4 5.4 18.4 8.7 19.5C9.5 19.8 10.3 19.9 11.1 20C11.2 20 11.3 20 11.3 20H12.6C13.1 19.9 13.6 19.9 14.1 19.8C14.5 19.7 14.9 19.6 15.3 19.5L13.5 16.8C13.1 16.9 12.5 17 12 17Z"/></g><defs><clipPath><path fill="#fff" d="M0 0H24V24H0z"/></clipPath></defs></svg>