<svg xmlns="http://www.w3.org/2000/svg" fill="currentColor" viewBox="0 0 24 24"><g><path fill="currentColor" fill-rule="evenodd" d="M12 23.2003C14.9705 23.2003 17.8192 22.0203 19.9196 19.9199C22.0201 17.8195 23.2001 14.9707 23.2001 12.0003C23.2001 9.02987 22.0201 6.1811 19.9196 4.0807C17.8192 1.98029 14.9705 0.800293 12 0.800293C9.02962 0.800293 6.18086 1.98029 4.08045 4.0807C1.98005 6.1811 0.800049 9.02987 0.800049 12.0003C0.800049 14.9707 1.98005 17.8195 4.08045 19.9199C6.18086 22.0203 9.02962 23.2003 12 23.2003ZM17.1901 10.1903C17.4438 9.92597 17.5839 9.57268 17.5801 9.20626C17.5763 8.83985 17.4291 8.48951 17.1699 8.23047C16.9107 7.97143 16.5603 7.82432 16.1939 7.82074C15.8275 7.81715 15.4742 7.95737 15.21 8.21129L10.6 12.8213L8.79005 11.0113C8.52748 10.7487 8.17137 10.6012 7.80005 10.6012C7.42873 10.6012 7.07261 10.7487 6.81005 11.0113C6.54748 11.2739 6.39998 11.63 6.39998 12.0013C6.39998 12.3726 6.54748 12.7287 6.81005 12.9913L9.61005 15.7913C9.74005 15.9213 9.89439 16.0244 10.0643 16.0948C10.2341 16.1652 10.4162 16.2014 10.6 16.2014C10.7839 16.2014 10.966 16.1652 11.1358 16.0948C11.3057 16.0244 11.46 15.9213 11.59 15.7913L17.1901 10.1913V10.1903Z" clip-rule="evenodd"/></g><defs><clipPath><path fill="#fff" d="M0 0H24V24H0z"/></clipPath></defs></svg>