<svg xmlns="http://www.w3.org/2000/svg" fill="none" viewBox="0 0 24 24"><path fill="#2946ED" d="M20.2027 9.188C20.1534 9.10183 20.0719 9.03875 19.9761 9.01259C19.8803 8.98644 19.778 8.99936 19.6917 9.0485L13.0317 12.8555L14.9517 9.563C14.9946 9.47755 15.0033 9.37895 14.9759 9.28734C14.9485 9.19573 14.8872 9.11803 14.8044 9.07014C14.7217 9.02225 14.6238 9.00778 14.5307 9.02969C14.4376 9.05159 14.3564 9.10822 14.3037 9.188L12.0027 13.131L9.70172 9.188C9.64901 9.10822 9.56783 9.05159 9.47476 9.02969C9.38169 9.00778 9.28376 9.02225 9.20101 9.07014C9.11825 9.11803 9.05692 9.19573 9.02954 9.28734C9.00216 9.37895 9.01081 9.47755 9.05372 9.563L10.9732 12.854L4.31522 9.05C4.27244 9.024 4.22489 9.00686 4.17536 8.99958C4.12584 8.9923 4.07536 8.99504 4.02692 9.00763C3.97847 9.02022 3.93305 9.0424 3.89333 9.07287C3.85362 9.10334 3.82043 9.14147 3.79572 9.185C3.77092 9.22842 3.75505 9.27636 3.74905 9.326C3.74305 9.37565 3.74704 9.42599 3.76078 9.47407C3.77452 9.52215 3.79774 9.56699 3.82907 9.60596C3.86041 9.64494 3.89921 9.67725 3.94322 9.701L11.8182 14.201C11.8752 14.2339 11.9399 14.2512 12.0057 14.2512C12.0715 14.2512 12.1362 14.2339 12.1932 14.201L20.0652 9.701C20.108 9.67644 20.1456 9.64367 20.1757 9.60457C20.2058 9.56547 20.2279 9.52081 20.2407 9.47315C20.2535 9.42549 20.2568 9.37577 20.2504 9.32684C20.244 9.2779 20.2274 9.23072 20.2027 9.188Z"/><path fill="#E6ECFF" d="M17.6277 13.5H6.37769C6.27823 13.5 6.18285 13.5395 6.11252 13.6098C6.04219 13.6802 6.00269 13.7755 6.00269 13.875V23.625C6.00269 23.832 6.17069 24 6.37769 24H17.6277C17.7271 24 17.8225 23.9605 17.8929 23.8902C17.9632 23.8198 18.0027 23.7245 18.0027 23.625V13.875C18.0027 13.7755 17.9632 13.6802 17.8929 13.6098C17.8225 13.5395 17.7271 13.5 17.6277 13.5Z"/><path fill="#4294FF" d="M10.1277 13.5V17.25C10.1277 17.3495 10.1672 17.4448 10.2375 17.5152C10.3078 17.5855 10.4032 17.625 10.5027 17.625H13.5027C13.6021 17.625 13.6975 17.5855 13.7679 17.5152C13.8382 17.4448 13.8777 17.3495 13.8777 17.25V13.5H10.1277ZM11.2527 21.75H7.12769C7.02823 21.75 6.93285 21.7105 6.86252 21.6402C6.79219 21.5698 6.75269 21.4745 6.75269 21.375C6.75269 21.2755 6.79219 21.1802 6.86252 21.1098C6.93285 21.0395 7.02823 21 7.12769 21H11.2527C11.3521 21 11.4475 21.0395 11.5179 21.1098C11.5882 21.1802 11.6277 21.2755 11.6277 21.375C11.6277 21.4745 11.5882 21.5698 11.5179 21.6402C11.4475 21.7105 11.3521 21.75 11.2527 21.75ZM9.37769 23.25H7.12769C7.02823 23.25 6.93285 23.2105 6.86252 23.1402C6.79219 23.0698 6.75269 22.9745 6.75269 22.875C6.75269 22.7755 6.79219 22.6802 6.86252 22.6098C6.93285 22.5395 7.02823 22.5 7.12769 22.5H9.37769C9.47714 22.5 9.57252 22.5395 9.64285 22.6098C9.71318 22.6802 9.75269 22.7755 9.75269 22.875C9.75269 22.9745 9.71318 23.0698 9.64285 23.1402C9.57252 23.2105 9.47714 23.25 9.37769 23.25ZM12.0027 0C9.81542 0.00251433 7.71846 0.872516 6.17183 2.41915C4.6252 3.96578 3.7552 6.06274 3.75269 8.25V9.375C3.75273 9.45312 3.77718 9.52928 3.82261 9.59284C3.86804 9.65639 3.93219 9.70417 4.00609 9.7295C4.07999 9.75483 4.15996 9.75645 4.23483 9.73413C4.30969 9.71181 4.37572 9.66666 4.42369 9.605C4.69959 9.25042 5.05282 8.96351 5.45644 8.76616C5.86005 8.56881 6.3034 8.46623 6.75269 8.46623C7.20197 8.46623 7.64532 8.56881 8.04893 8.76616C8.45255 8.96351 8.80578 9.25042 9.08169 9.605C9.11811 9.64798 9.16345 9.68251 9.21457 9.70619C9.26569 9.72988 9.32135 9.74215 9.37769 9.74215C9.43402 9.74215 9.48968 9.72988 9.5408 9.70619C9.59192 9.68251 9.63726 9.64798 9.67369 9.605C9.94959 9.25042 10.3028 8.96351 10.7064 8.76616C11.1101 8.56881 11.5534 8.46623 12.0027 8.46623C12.452 8.46623 12.8953 8.56881 13.2989 8.76616C13.7026 8.96351 14.0558 9.25042 14.3317 9.605C14.3682 9.6479 14.4135 9.68236 14.4646 9.706C14.5157 9.72963 14.5714 9.74187 14.6277 9.74187C14.684 9.74187 14.7396 9.72963 14.7907 9.706C14.8419 9.68236 14.8872 9.6479 14.9237 9.605C15.1995 9.25024 15.5527 8.96318 15.9563 8.76571C16.3599 8.56825 16.8033 8.4656 17.2527 8.4656C17.702 8.4656 18.1454 8.56825 18.5491 8.76571C18.9527 8.96318 19.3059 9.25024 19.5817 9.605C19.6297 9.66666 19.6957 9.71181 19.7705 9.73413C19.8454 9.75645 19.9254 9.75483 19.9993 9.7295C20.0732 9.70417 20.1373 9.65639 20.1828 9.59284C20.2282 9.52928 20.2526 9.45312 20.2527 9.375V8.25C20.2502 6.06274 19.3802 3.96578 17.8335 2.41915C16.2869 0.872516 14.1899 0.00251433 12.0027 0Z"/><path fill="#376CFB" d="M9.37769 9.37578L9.53869 9.70928C9.46138 9.74345 9.3751 9.75169 9.29273 9.73277C9.21036 9.71384 9.13632 9.66877 9.08169 9.60428C8.80538 9.2503 8.45202 8.96395 8.04845 8.76701C7.64489 8.57006 7.20174 8.4677 6.75269 8.4677C6.30363 8.4677 5.86048 8.57006 5.45692 8.76701C5.05335 8.96395 4.69999 9.2503 4.42369 9.60428C4.3758 9.66585 4.30991 9.71095 4.23519 9.73331C4.16046 9.75567 4.08063 9.75417 4.0068 9.72903C3.93296 9.70389 3.86881 9.65635 3.82326 9.59303C3.77772 9.52972 3.75305 9.45378 3.75269 9.37578V8.25078C3.7549 6.29987 4.44736 4.41266 5.70748 2.92331C6.9676 1.43396 8.71407 0.438531 10.6377 0.113281C6.60269 3.62328 9.37769 9.37578 9.37769 9.37578ZM20.2527 8.25078V9.37578C20.2523 9.45378 20.2277 9.52972 20.1821 9.59303C20.1366 9.65635 20.0724 9.70389 19.9986 9.72903C19.9247 9.75417 19.8449 9.75567 19.7702 9.73331C19.6955 9.71095 19.6296 9.66585 19.5817 9.60428C19.3054 9.25039 18.952 8.96412 18.5485 8.76724C18.145 8.57035 17.7019 8.46802 17.2529 8.46802C16.8039 8.46802 16.3609 8.57035 15.9573 8.76724C15.5538 8.96412 15.2005 9.25039 14.9242 9.60428C14.8695 9.66888 14.7954 9.71402 14.7129 9.73295C14.6304 9.75188 14.544 9.74358 14.4667 9.70928L14.6277 9.37578C14.6277 9.37578 17.4027 3.61578 13.3642 0.113281C15.2881 0.438445 17.035 1.43374 18.2957 2.92302C19.5564 4.4123 20.2496 6.29955 20.2527 8.25078Z"/></svg>