<svg xmlns="http://www.w3.org/2000/svg" fill="none" viewBox="0 0 25 25"><path fill="currentColor" d="M12.7399 1.8125C6.93671 1.8125 2.23511 6.5141 2.23511 12.3077C2.23511 18.1109 6.93671 22.8125 12.7399 22.8125C18.5335 22.8125 23.2351 18.1109 23.2351 12.3077C23.2351 6.5141 18.5335 1.8125 12.7399 1.8125ZM19.9783 13.0085C19.9615 13.2245 19.9255 13.4669 19.8655 13.7357H5.61191C5.55191 13.4669 5.50871 13.2149 5.48951 12.9821C5.47271 12.7493 5.46311 12.5069 5.46311 12.2549C5.46311 12.0389 5.47271 11.8229 5.48951 11.6141C5.50631 11.3981 5.54951 11.1557 5.61191 10.8869H19.8655C19.9255 11.1557 19.9615 11.4053 19.9783 11.6405C20.0047 11.8733 20.0119 12.1157 20.0119 12.3677C20.0143 12.5861 20.0047 12.7925 19.9783 13.0085Z"/></svg>