<svg xmlns="http://www.w3.org/2000/svg" fill="none" viewBox="0 0 24 24"><path fill="#376CFB" d="M13.4998 9H10.4998C10.4003 9 10.3049 9.03951 10.2346 9.10983C10.1643 9.18016 10.1248 9.27554 10.1248 9.375V11.25C10.1248 11.457 10.2928 11.625 10.4998 11.625H13.4998C13.5992 11.625 13.6946 11.5855 13.7649 11.5152C13.8352 11.4448 13.8748 11.3495 13.8748 11.25V9.375C13.8748 9.27554 13.8352 9.18016 13.7649 9.10983C13.6946 9.03951 13.5992 9 13.4998 9Z"/><path fill="#E6ECFF" d="M16.4998 0H7.49976C7.4003 0 7.30492 0.0395088 7.23459 0.109835C7.16426 0.180161 7.12476 0.275544 7.12476 0.375V7.875C7.12476 8.082 7.29276 8.25 7.49976 8.25H16.4998C16.5992 8.25 16.6946 8.21049 16.7649 8.14017C16.8352 8.06984 16.8748 7.97446 16.8748 7.875V0.375C16.8748 0.275544 16.8352 0.180161 16.7649 0.109835C16.6946 0.0395088 16.5992 0 16.4998 0Z"/><path fill="#4294FF" d="M10.1248 0V2.625C10.1248 2.72446 10.1643 2.81984 10.2346 2.89017C10.3049 2.96049 10.4003 3 10.4998 3H13.4998C13.5992 3 13.6946 2.96049 13.7649 2.89017C13.8352 2.81984 13.8748 2.72446 13.8748 2.625V0H10.1248ZM19.4998 7.5H4.49976C4.4003 7.5 4.30492 7.53951 4.23459 7.60984C4.16426 7.68016 4.12476 7.77554 4.12476 7.875V8.625C4.12476 8.92337 4.24328 9.20952 4.45426 9.4205C4.66524 9.63147 4.95139 9.75 5.24976 9.75H18.7498C19.0481 9.75 19.3343 9.63147 19.5453 9.4205C19.7562 9.20952 19.8748 8.92337 19.8748 8.625V7.875C19.8748 7.77554 19.8352 7.68016 19.7649 7.60984C19.6946 7.53951 19.5992 7.5 19.4998 7.5Z"/><path fill="#376CFB" d="M17.6248 21.375H6.37476C6.2753 21.375 6.17992 21.4145 6.10959 21.4848C6.03926 21.5552 5.99976 21.6505 5.99976 21.75V23.625C5.99976 23.832 6.16776 24 6.37476 24H17.6248C17.7242 24 17.8196 23.9605 17.8899 23.8902C17.9602 23.8198 17.9998 23.7245 17.9998 23.625V21.75C17.9998 21.6505 17.9602 21.5552 17.8899 21.4848C17.8196 21.4145 17.7242 21.375 17.6248 21.375Z"/><path fill="#4294FF" d="M17.9918 11.1715C17.9738 11.0875 17.9276 11.0123 17.8608 10.9583C17.794 10.9043 17.7107 10.8749 17.6248 10.875H6.37481C6.28902 10.875 6.20584 10.9045 6.13914 10.9585C6.07245 11.0124 6.02627 11.0876 6.00831 11.1715L3.75831 21.6715C3.74661 21.7262 3.74727 21.7827 3.76025 21.8371C3.77324 21.8915 3.79821 21.9422 3.83334 21.9857C3.86847 22.0292 3.91288 22.0642 3.96331 22.0883C4.01374 22.1124 4.06892 22.125 4.12481 22.125H19.8748C19.9307 22.125 19.986 22.1126 20.0365 22.0885C20.087 22.0644 20.1314 22.0294 20.1666 21.9859C20.2018 21.9424 20.2268 21.8916 20.2398 21.8372C20.2528 21.7828 20.2535 21.7262 20.2418 21.6715L17.9918 11.1715Z"/><path fill="#376CFB" d="M11.9998 20.625C13.0938 20.625 14.143 20.1904 14.9166 19.4168C15.6902 18.6432 16.1248 17.594 16.1248 16.5C16.1248 15.406 15.6902 14.3568 14.9166 13.5832C14.143 12.8096 13.0938 12.375 11.9998 12.375C10.9057 12.375 9.85653 12.8096 9.08294 13.5832C8.30935 14.3568 7.87476 15.406 7.87476 16.5C7.87476 17.594 8.30935 18.6432 9.08294 19.4168C9.85653 20.1904 10.9057 20.625 11.9998 20.625Z"/><path fill="#2946ED" d="M11.9998 16.8745C11.9256 16.8744 11.8532 16.8524 11.7916 16.8112C11.73 16.77 11.682 16.7114 11.6536 16.643C11.6253 16.5745 11.6178 16.4991 11.6323 16.4264C11.6467 16.3537 11.6824 16.2869 11.7348 16.2345L12.4848 15.4845C12.5558 15.4183 12.6499 15.3822 12.747 15.3839C12.8442 15.3856 12.9369 15.425 13.0056 15.4937C13.0743 15.5624 13.1136 15.6551 13.1153 15.7522C13.1171 15.8494 13.081 15.9434 13.0148 16.0145L12.2648 16.7645C12.1945 16.8348 12.0992 16.8744 11.9998 16.8745ZM11.9998 14.25C11.9003 14.25 11.8049 14.2105 11.7346 14.1402C11.6643 14.0698 11.6248 13.9745 11.6248 13.875V13.5C11.6248 13.4005 11.6643 13.3052 11.7346 13.2348C11.8049 13.1645 11.9003 13.125 11.9998 13.125C12.0992 13.125 12.1946 13.1645 12.2649 13.2348C12.3352 13.3052 12.3748 13.4005 12.3748 13.5V13.875C12.3748 13.9745 12.3352 14.0698 12.2649 14.1402C12.1946 14.2105 12.0992 14.25 11.9998 14.25ZM10.4088 14.9085C10.3384 14.9787 10.2431 15.0182 10.1438 15.0182C10.0444 15.0182 9.94907 14.9787 9.87876 14.9085L9.61376 14.6435C9.54752 14.5724 9.51145 14.4784 9.51317 14.3812C9.51488 14.2841 9.55424 14.1914 9.62294 14.1227C9.69165 14.054 9.78434 14.0146 9.88149 14.0129C9.97865 14.0112 10.0727 14.0473 10.1438 14.1135L10.4088 14.3785C10.479 14.4488 10.5184 14.5441 10.5184 14.6435C10.5184 14.7429 10.479 14.8382 10.4088 14.9085ZM9.74976 16.5C9.74976 16.5995 9.71025 16.6948 9.63992 16.7652C9.56959 16.8355 9.47421 16.875 9.37476 16.875H8.99976C8.9003 16.875 8.80492 16.8355 8.73459 16.7652C8.66426 16.6948 8.62476 16.5995 8.62476 16.5C8.62476 16.4005 8.66426 16.3052 8.73459 16.2348C8.80492 16.1645 8.9003 16.125 8.99976 16.125H9.37476C9.47421 16.125 9.56959 16.1645 9.63992 16.2348C9.71025 16.3052 9.74976 16.4005 9.74976 16.5ZM10.4088 18.09C10.4436 18.1248 10.4712 18.1662 10.4901 18.2117C10.509 18.2572 10.5187 18.306 10.5187 18.3552C10.5187 18.4045 10.509 18.4533 10.4901 18.4988C10.4712 18.5443 10.4436 18.5857 10.4088 18.6205L10.1438 18.8855C10.0727 18.9517 9.97865 18.9878 9.88149 18.9861C9.78434 18.9844 9.69165 18.945 9.62294 18.8763C9.55424 18.8076 9.51488 18.7149 9.51317 18.6178C9.51145 18.5206 9.54752 18.4266 9.61376 18.3555L9.87876 18.0905C9.94907 18.0203 10.0444 17.9808 10.1438 17.9808C10.2431 17.9808 10.3384 18.0198 10.4088 18.09ZM11.9998 18.75C12.0992 18.75 12.1946 18.7895 12.2649 18.8598C12.3352 18.9302 12.3748 19.0255 12.3748 19.125V19.5C12.3748 19.5995 12.3352 19.6948 12.2649 19.7652C12.1946 19.8355 12.0992 19.875 11.9998 19.875C11.9003 19.875 11.8049 19.8355 11.7346 19.7652C11.6643 19.6948 11.6248 19.5995 11.6248 19.5V19.125C11.6248 19.0255 11.6643 18.9302 11.7346 18.8598C11.8049 18.7895 11.9003 18.75 11.9998 18.75ZM13.5913 18.09C13.6616 18.0198 13.7569 17.9803 13.8563 17.9803C13.9556 17.9803 14.0509 18.0198 14.1213 18.09L14.3863 18.355C14.4546 18.4257 14.4924 18.5204 14.4916 18.6187C14.4908 18.7171 14.4514 18.8111 14.3819 18.8807C14.3124 18.9502 14.2184 18.9897 14.1201 18.9906C14.0218 18.9915 13.927 18.9538 13.8563 18.8855L13.5913 18.6205C13.521 18.5502 13.4816 18.4549 13.4816 18.3555C13.4816 18.2561 13.521 18.1603 13.5913 18.09ZM14.2498 16.5C14.2498 16.4005 14.2893 16.3052 14.3596 16.2348C14.4299 16.1645 14.5253 16.125 14.6248 16.125H14.9998C15.0992 16.125 15.1946 16.1645 15.2649 16.2348C15.3352 16.3052 15.3748 16.4005 15.3748 16.5C15.3748 16.5995 15.3352 16.6948 15.2649 16.7652C15.1946 16.8355 15.0992 16.875 14.9998 16.875H14.6248C14.5253 16.875 14.4299 16.8355 14.3596 16.7652C14.2893 16.6948 14.2498 16.5995 14.2498 16.5ZM13.5913 14.9085C13.521 14.8382 13.4816 14.7429 13.4816 14.6435C13.4816 14.5441 13.521 14.4488 13.5913 14.3785L13.8563 14.1135C13.9273 14.0473 14.0214 14.0112 14.1185 14.0129C14.2157 14.0146 14.3084 14.054 14.3771 14.1227C14.4458 14.1914 14.4851 14.2841 14.4868 14.3812C14.4886 14.4784 14.4525 14.5724 14.3863 14.6435L14.1213 14.9085C14.0509 14.9787 13.9556 15.0182 13.8563 15.0182C13.7569 15.0182 13.6616 14.9787 13.5913 14.9085Z"/><path fill="#4294FF" d="M11.6248 5.625H8.24976C8.1503 5.625 8.05492 5.58549 7.98459 5.51516C7.91426 5.44484 7.87476 5.34946 7.87476 5.25C7.87476 5.15054 7.91426 5.05516 7.98459 4.98484C8.05492 4.91451 8.1503 4.875 8.24976 4.875H11.6248C11.7242 4.875 11.8196 4.91451 11.8899 4.98484C11.9602 5.05516 11.9998 5.15054 11.9998 5.25C11.9998 5.34946 11.9602 5.44484 11.8899 5.51516C11.8196 5.58549 11.7242 5.625 11.6248 5.625ZM10.1248 6.75H8.24976C8.1503 6.75 8.05492 6.71049 7.98459 6.64016C7.91426 6.56984 7.87476 6.47446 7.87476 6.375C7.87476 6.27554 7.91426 6.18016 7.98459 6.10984C8.05492 6.03951 8.1503 6 8.24976 6H10.1248C10.2242 6 10.3196 6.03951 10.3899 6.10984C10.4602 6.18016 10.4998 6.27554 10.4998 6.375C10.4998 6.47446 10.4602 6.56984 10.3899 6.64016C10.3196 6.71049 10.2242 6.75 10.1248 6.75Z"/></svg>