<svg xmlns="http://www.w3.org/2000/svg" viewBox="0 0 32 32" fill="none"><path fill-rule="evenodd" clip-rule="evenodd" d="M12.57 6.077c-5.02 3.224-7.81 6.976-8.367 11.258-.869 6.665 5.091 9.927 8.111 6.996 3.02-2.931 1.21-6.651-.977-7.668-2.186-1.017-3.524-.663-3.29-2.022.233-1.359 3.344-5.127 6.077-6.882a.5.5 0 0 0 .076-.68l-.676-.879c-.293-.381-.575-.367-.955-.123Zm13.217 0c-5.02 3.224-7.81 6.977-8.367 11.258-.869 6.665 5.091 9.927 8.111 6.996 3.02-2.931 1.21-6.651-.977-7.668-2.187-1.017-3.524-.663-3.29-2.022.233-1.359 3.344-5.127 6.077-6.882a.5.5 0 0 0 .076-.68L26.74 6.2c-.294-.381-.575-.367-.954-.123Z" fill="currentColor"/></svg>