<svg width="24" height="24" viewBox="0 0 24 24" fill="none" xmlns="http://www.w3.org/2000/svg">
<path d="M11.9955 15.4974C12.9599 15.4974 13.8848 15.1286 14.5668 14.4722C15.2487 13.8159 15.6318 12.9256 15.6318 11.9974C15.6318 11.0691 15.2487 10.1789 14.5668 9.5225C13.8848 8.86612 12.9599 8.49738 11.9955 8.49738C11.031 8.49738 10.1061 8.86612 9.42416 9.5225C8.74221 10.1789 8.35909 11.0691 8.35909 11.9974C8.35909 12.9256 8.74221 13.8159 9.42416 14.4722C10.1061 15.1286 11.031 15.4974 11.9955 15.4974ZM21.0909 5H2.90909C2.66799 5 2.43675 5.09219 2.26627 5.25628C2.09578 5.42038 2 5.64294 2 5.875V18.125C2 18.3571 2.09578 18.5796 2.26627 18.7437C2.43675 18.9078 2.66799 19 2.90909 19H21.0909C21.332 19 21.5632 18.9078 21.7337 18.7437C21.9042 18.5796 22 18.3571 22 18.125V5.875C22 5.64294 21.9042 5.42038 21.7337 5.25628C21.5632 5.09219 21.332 5 21.0909 5ZM3.81818 15.1876V8.80713C4.32323 8.66099 4.78275 8.39658 5.15559 8.03758C5.52842 7.67857 5.80293 7.23618 5.95455 6.75H18.0373C18.1894 7.2374 18.465 7.68074 18.8394 8.04014C19.2137 8.39953 19.675 8.6637 20.1818 8.80888V15.1859C19.6743 15.3314 19.2123 15.5963 18.8378 15.9567C18.4632 16.3171 18.1878 16.7615 18.0364 17.25H5.95455C5.80363 16.7628 5.52932 16.3192 5.15628 15.9592C4.78323 15.5993 4.32402 15.3341 3.81818 15.1876Z" fill="#8C8F96"/>
</svg>
