<svg width="24" height="24" fill="none" xmlns="http://www.w3.org/2000/svg"><path d="M19.108 7.026c-.018.117-.04.237-.063.36-.81 4.163-3.585 5.602-7.128 5.602h-1.804a.876.876 0 0 0-.866.742l-.923 5.857-.262 1.66a.462.462 0 0 0 .456.534h3.2a.77.77 0 0 0 .76-.649l.031-.163.602-3.822.04-.21a.77.77 0 0 1 .76-.65h.478c3.1 0 5.527-1.259 6.236-4.9.296-1.522.143-2.793-.641-3.686a3.06 3.06 0 0 0-.876-.675Z" fill="#179BD7"/><path d="M18.26 6.688a6.395 6.395 0 0 0-.788-.175c-.526-.081-1.058-.12-1.59-.117h-4.82a.768.768 0 0 0-.76.65L9.279 13.54l-.03.19a.876.876 0 0 1 .866-.743h1.804c3.543 0 6.317-1.438 7.128-5.6.024-.124.044-.244.063-.361a4.327 4.327 0 0 0-.849-.338Z" fill="#222D65"/><path d="M10.302 7.047a.767.767 0 0 1 .76-.65h4.819c.57 0 1.104.037 1.59.116.329.052.654.13.97.231.24.08.462.173.667.282.242-1.539-.002-2.586-.834-3.535C17.358 2.447 15.703 2 13.584 2H7.437a.879.879 0 0 0-.869.743l-2.56 16.233a.529.529 0 0 0 .52.61h3.797l.953-6.046 1.025-6.493Z" fill="#253B80"/></svg>